<svg width="74" height="169" viewBox="0 0 74 169" fill="none" xmlns="http://www.w3.org/2000/svg">
<path d="M55.4306 83.735C56.1345 86.5559 55.1928 89.2028 53.3274 89.647C51.4621 90.0912 49.3798 88.1646 48.676 85.3426C48.3788 84.2191 48.3655 83.0415 48.6372 81.9083L45.8113 69.9187L51.685 68.7207L53.8472 80.6675C54.6224 81.5517 55.1653 82.6035 55.4306 83.735Z" fill="#FDADB0"/>
<path d="M30.8045 152.293L31.1664 160.151L30.804 162.326L32.0725 164.863L42.0388 165.95L42.5824 161.238L37.3274 158.52L37.1747 154.08L30.8045 152.293Z" fill="#FDADB0"/>
<path d="M41.3139 164.138L40.7703 164.863L30.3331 161.856C30.3331 161.856 30.804 166.494 30.804 167.4C30.804 168.306 48.0185 168.306 50.6089 167.944C53.1993 167.581 52.3675 165.226 52.3675 165.226L41.6251 160.141L41.3139 164.138Z" fill="#2F2E43"/>
<path d="M4.8388 146.509L2.6668 154.07L1.62756 156.014L2.01743 158.823L11.1117 163.043L13.1345 158.753L9.02571 154.496L11.6031 147.813L4.8388 146.509Z" fill="#FDADB0"/>
<path d="M11.0049 161.094L10.2579 161.607L1.33216 155.417C1.33216 155.417 0.293772 159.962 0.00381912 160.821C-0.286134 161.679 16.0231 167.188 18.5932 167.674C21.1634 168.159 21.1292 165.661 21.1292 165.661L12.5791 157.406L11.0049 161.094Z" fill="#2F2E43"/>
<path d="M31.5071 22.5575L31.8876 28.7378L20.3474 29.3232L23.921 21.1807L31.5071 22.5575Z" fill="#FDADB0"/>
<path d="M32.182 27.8125C29.0888 29.1922 24.1413 28.8147 18.5344 27.8125L17.6581 66.6572C17.6581 66.6572 35.1971 70.1835 41.2275 63.6771L38.0536 31.9385L32.182 27.8125Z" fill="#E0E1E2"/>
<path d="M39.3233 64.6309L14.5625 67.0781L2.34326 150.047H11.7061L27.7387 93.1955L29.0082 157.625H37.5776L44.8775 78.7545L39.3233 64.6309Z" fill="#2F2E43"/>
<path d="M22.0547 25.4326L13.7353 30.3557C10.5838 32.2207 9.09829 35.9856 10.1273 39.5001L16.557 61.4606C16.557 61.4606 6.08675 79.4482 9.489 81.0351C17.1344 84.6011 28.5428 83.7328 28.5428 83.7328L25.993 40.6671L22.0547 25.4326Z" fill="#3F3D58"/>
<path d="M31.8206 27.6484L41.2275 31.303L43.4492 58.4395L49.671 80.3004C39.1327 84.1471 40.1167 82.3546 40.1167 82.3546L38.371 44.6332L31.8206 27.6484Z" fill="#3F3D58"/>
<path d="M45.5626 79.8401L45.5304 79.6916L35.9147 35.2177C35.646 33.975 35.9896 32.7294 36.8572 31.8001C37.7249 30.8706 38.9443 30.4425 40.2026 30.6254C41.7546 30.8511 42.9971 31.9816 43.3678 33.5056L53.9297 76.9198L45.5626 79.8401Z" fill="#3F3D58"/>
<path d="M26.4996 24.201C31.6705 24.201 35.8623 20.0092 35.8623 14.8383C35.8623 9.66742 31.6705 5.47559 26.4996 5.47559C21.3287 5.47559 17.1369 9.66742 17.1369 14.8383C17.1369 20.0092 21.3287 24.201 26.4996 24.201Z" fill="#FDADB0"/>
<path d="M30.9539 2.70611C33.0162 3.43093 34.1963 3.84569 35.2772 4.88706C37.1031 6.6461 37.4044 8.99681 37.6844 11.181C37.9035 12.8897 38.1867 15.0989 37.1861 17.623C36.8446 18.4844 35.1883 22.3222 32.0178 22.8071C31.3952 22.9024 29.9334 22.9274 30.3547 22.6164C34.2542 19.7375 35.9184 17.9995 35.782 13.5627C35.6972 10.8058 31.4846 7.82932 28.9833 7.29424C27.9296 7.06887 26.5268 7.27476 25.5208 8.10058C23.4185 9.82645 23.5082 16.9633 21.2914 18.4552C20.3798 19.0688 20.9873 14.7498 20.3449 15.4502C19.0774 16.8322 19.8904 18.9485 20.1182 19.7545C21.1986 23.5775 23.2354 23.9517 24.2907 27.2163C25.43 30.7409 23.9961 34.0593 23.6561 34.8462C23.0646 36.2151 22.0495 38.5644 19.7303 39.6915C16.7864 41.1221 14.4661 39.2592 13.0974 40.8563C12.3323 41.7491 12.7462 42.6946 11.3644 45.4717C10.9133 46.3782 10.6878 46.8315 10.4881 46.8154C9.54322 46.7393 8.01339 39.1758 10.4876 32.132C11.526 29.1759 12.5433 26.2798 15.2702 24.0151C16.7119 22.8178 17.9211 22.3869 18.2652 20.9887C18.7569 18.9912 16.7152 18.1386 16.3059 14.9869C16.0261 12.8314 15.8297 9.74863 16.5908 7.77273C17.3094 5.90681 17.9333 4.28706 19.5663 2.81845C19.9584 2.46571 23.1244 0.0679764 26.4813 0.000340501C28.0267 -0.0307521 29.1621 2.07636 30.9539 2.70611Z" fill="#2F2E43"/>
<path d="M50.7376 84.4949C63.3848 84.4949 73.6374 74.2423 73.6374 61.5951C73.6374 48.9479 63.3848 38.6953 50.7376 38.6953C38.0904 38.6953 27.8378 48.9479 27.8378 61.5951C27.8378 74.2423 38.0904 84.4949 50.7376 84.4949Z" fill="#CECEFF"/>
<path d="M31.4085 56.924C34.2999 56.6198 36.7899 57.921 36.97 59.83C37.1501 61.7391 34.9522 63.5327 32.0597 63.8366C30.9058 63.9745 29.7379 63.8237 28.6535 63.3968L16.3872 64.5252L16.0189 58.542L28.1504 58.0647C29.134 57.4202 30.2511 57.0291 31.4085 56.924Z" fill="#FDADB0"/>
<path d="M16.4638 30.6403C13.4946 30.2221 10.709 32.1744 10.0918 35.1087C7.9387 45.346 4.07493 67.1526 10.1434 67.5167C18.0781 67.9928 25.6953 66.0885 25.6953 66.0885L23.791 55.1387L17.602 54.5039L21.2425 37.4757C21.9337 34.2425 19.7378 31.1014 16.4638 30.6403Z" fill="#3F3D58"/>
<mask id="mask0_111_601" style="mask-type:luminance" maskUnits="userSpaceOnUse" x="37" y="52" width="5" height="9">
<path d="M37.9173 60.8262C37.7638 60.7821 37.6575 60.6348 37.6708 60.4695C37.7913 58.9758 38.1609 57.5317 38.7694 56.1772C39.3576 54.8681 40.1554 53.6709 41.1407 52.6189C41.27 52.4809 41.4867 52.4738 41.6247 52.603C41.7628 52.7323 41.7699 52.949 41.6406 53.0871C40.7071 54.0838 39.9513 55.2179 39.3941 56.4579C38.8178 57.7409 38.4676 59.109 38.3535 60.5246C38.3382 60.7131 38.1731 60.8536 37.9846 60.8383C37.9614 60.8365 37.9389 60.8323 37.9173 60.8262Z" fill="white"/>
</mask>
<g mask="url(#mask0_111_601)">
<path d="M37.9173 60.8262C37.7638 60.7821 37.6575 60.6348 37.6708 60.4695C37.7913 58.9758 38.1609 57.5317 38.7694 56.1772C39.3576 54.8681 40.1554 53.6709 41.1407 52.6189C41.27 52.4809 41.4867 52.4738 41.6247 52.603C41.7628 52.7323 41.7699 52.949 41.6406 53.0871C40.7071 54.0838 39.9513 55.2179 39.3941 56.4579C38.8178 57.7409 38.4676 59.109 38.3535 60.5246C38.3382 60.7131 38.1731 60.8536 37.9846 60.8383C37.9614 60.8365 37.9389 60.8323 37.9173 60.8262Z" fill="url(#paint0_linear_111_601)"/>
</g>
<mask id="mask1_111_601" style="mask-type:luminance" maskUnits="userSpaceOnUse" x="42" y="48" width="18" height="5">
<path d="M42.7741 51.8307C42.7068 51.8114 42.6448 51.7713 42.5985 51.7118C42.4824 51.5626 42.5093 51.3474 42.6586 51.2313C45.2332 49.2289 48.4431 48.2706 51.6971 48.5329C54.5841 48.7658 57.2423 49.9135 59.3842 51.8525C59.5244 51.9794 59.5352 52.1959 59.4083 52.3361C59.2813 52.4764 59.0649 52.4871 58.9246 52.3602C56.8957 50.5236 54.3773 49.4362 51.642 49.2156C48.5592 48.967 45.5182 49.8749 43.079 51.7719C42.9893 51.8417 42.8757 51.8598 42.7741 51.8307Z" fill="white"/>
</mask>
<g mask="url(#mask1_111_601)">
<path d="M42.7741 51.8307C42.7068 51.8114 42.6448 51.7713 42.5985 51.7118C42.4824 51.5626 42.5093 51.3474 42.6586 51.2313C45.2332 49.2289 48.4431 48.2706 51.6971 48.5329C54.5841 48.7658 57.2423 49.9135 59.3842 51.8525C59.5244 51.9794 59.5352 52.1959 59.4083 52.3361C59.2813 52.4764 59.0649 52.4871 58.9246 52.3602C56.8957 50.5236 54.3773 49.4362 51.642 49.2156C48.5592 48.967 45.5182 49.8749 43.079 51.7719C42.9893 51.8417 42.8757 51.8598 42.7741 51.8307Z" fill="url(#paint1_linear_111_601)"/>
</g>
<mask id="mask2_111_601" style="mask-type:luminance" maskUnits="userSpaceOnUse" x="60" y="53" width="4" height="10">
<path d="M63.1962 62.8667C63.0427 62.8226 62.9363 62.6753 62.9497 62.51C63.2053 59.3427 62.2467 56.2375 60.2505 53.7665C60.1317 53.6194 60.1547 53.4038 60.3017 53.285C60.4489 53.1661 60.6645 53.1891 60.7833 53.3362C62.8903 55.9444 63.9021 59.2219 63.6324 62.5651C63.6171 62.7536 63.452 62.8941 63.2635 62.8789C63.2403 62.877 63.2178 62.8729 63.1962 62.8667Z" fill="white"/>
</mask>
<g mask="url(#mask2_111_601)">
<path d="M63.1962 62.8667C63.0427 62.8226 62.9363 62.6753 62.9497 62.51C63.2053 59.3427 62.2467 56.2375 60.2505 53.7665C60.1317 53.6194 60.1547 53.4038 60.3017 53.285C60.4489 53.1661 60.6645 53.1891 60.7833 53.3362C62.8903 55.9444 63.9021 59.2219 63.6324 62.5651C63.6171 62.7536 63.452 62.8941 63.2635 62.8789C63.2403 62.877 63.2178 62.8729 63.1962 62.8667Z" fill="url(#paint2_linear_111_601)"/>
</g>
<mask id="mask3_111_601" style="mask-type:luminance" maskUnits="userSpaceOnUse" x="62" y="62" width="2" height="4">
<path d="M62.6829 65.5902C62.6807 65.5896 62.6786 65.589 62.6765 65.5883C62.4957 65.5327 62.3942 65.3411 62.4498 65.1603C62.7141 64.3015 62.8848 63.4093 62.9573 62.5087C62.9725 62.3202 63.1377 62.1797 63.3262 62.1949C63.5149 62.2101 63.6552 62.3752 63.64 62.5637C63.5635 63.5139 63.3833 64.4553 63.1045 65.3617C63.0495 65.5404 62.8617 65.6416 62.6829 65.5902Z" fill="white"/>
</mask>
<g mask="url(#mask3_111_601)">
<path d="M62.6829 65.5902C62.6807 65.5896 62.6786 65.589 62.6765 65.5883C62.4957 65.5327 62.3942 65.3411 62.4498 65.1603C62.7141 64.3015 62.8848 63.4093 62.9573 62.5087C62.9725 62.3202 63.1377 62.1797 63.3262 62.1949C63.5149 62.2101 63.6552 62.3752 63.64 62.5637C63.5635 63.5139 63.3833 64.4553 63.1045 65.3617C63.0495 65.5404 62.8617 65.6416 62.6829 65.5902Z" fill="url(#paint3_linear_111_601)"/>
</g>
<mask id="mask4_111_601" style="mask-type:luminance" maskUnits="userSpaceOnUse" x="37" y="60" width="2" height="2">
<path d="M37.8922 61.3779C37.7443 61.3354 37.6386 61.1964 37.6447 61.0357C37.6521 60.8426 37.6633 60.6516 37.678 60.4679C37.6931 60.2794 37.8582 60.1389 38.0467 60.154C38.2355 60.1691 38.3758 60.3342 38.3607 60.5227C38.3467 60.6968 38.3361 60.8781 38.3291 61.0617C38.322 61.2507 38.163 61.3981 37.974 61.3909C37.9457 61.3898 37.9183 61.3854 37.8922 61.3779Z" fill="white"/>
</mask>
<g mask="url(#mask4_111_601)">
<path d="M37.8922 61.3779C37.7443 61.3354 37.6386 61.1964 37.6447 61.0357C37.6521 60.8426 37.6633 60.6516 37.678 60.4679C37.6931 60.2794 37.8582 60.1389 38.0467 60.154C38.2355 60.1691 38.3758 60.3342 38.3607 60.5227C38.3467 60.6968 38.3361 60.8781 38.3291 61.0617C38.322 61.2507 38.163 61.3981 37.974 61.3909C37.9457 61.3898 37.9183 61.3854 37.8922 61.3779Z" fill="url(#paint4_linear_111_601)"/>
</g>
<mask id="mask5_111_601" style="mask-type:luminance" maskUnits="userSpaceOnUse" x="43" y="61" width="8" height="12">
<path d="M44.0289 72.7194C43.9517 72.6973 43.882 72.6481 43.8352 72.5752C43.7331 72.4161 43.7793 72.2043 43.9385 72.1021C45.7074 70.967 47.2207 69.4225 48.3148 67.6356C49.4618 65.7622 50.1335 63.694 50.311 61.4886C50.3262 61.3001 50.4913 61.1596 50.6798 61.1748C50.8684 61.1899 51.0089 61.3551 50.9936 61.5436C50.8075 63.8572 50.1027 66.0272 48.8988 67.9932C47.7511 69.8677 46.1638 71.4879 44.3084 72.6785C44.2221 72.7339 44.1203 72.7456 44.0289 72.7194Z" fill="white"/>
</mask>
<g mask="url(#mask5_111_601)">
<path d="M44.0289 72.7194C43.9517 72.6973 43.882 72.6481 43.8352 72.5752C43.7331 72.4161 43.7793 72.2043 43.9385 72.1021C45.7074 70.967 47.2207 69.4225 48.3148 67.6356C49.4618 65.7622 50.1335 63.694 50.311 61.4886C50.3262 61.3001 50.4913 61.1596 50.6798 61.1748C50.8684 61.1899 51.0089 61.3551 50.9936 61.5436C50.8075 63.8572 50.1027 66.0272 48.8988 67.9932C47.7511 69.8677 46.1638 71.4879 44.3084 72.6785C44.2221 72.7339 44.1203 72.7456 44.0289 72.7194Z" fill="url(#paint5_linear_111_601)"/>
</g>
<mask id="mask6_111_601" style="mask-type:luminance" maskUnits="userSpaceOnUse" x="42" y="67" width="5" height="5">
<path d="M42.6092 71.7272C42.5263 71.7035 42.4524 71.6486 42.4063 71.5678C42.3125 71.4035 42.3697 71.1944 42.534 71.1006C43.9872 70.2717 45.2381 69.177 46.252 67.8473C46.3668 67.697 46.5817 67.6681 46.732 67.7826C46.8824 67.8973 46.9114 68.1122 46.7967 68.2626C45.7267 69.6658 44.4067 70.8208 42.8734 71.6955C42.7899 71.7432 42.6948 71.7518 42.6092 71.7272Z" fill="white"/>
</mask>
<g mask="url(#mask6_111_601)">
<path d="M42.6092 71.7272C42.5263 71.7035 42.4524 71.6486 42.4063 71.5678C42.3125 71.4035 42.3697 71.1944 42.534 71.1006C43.9872 70.2717 45.2381 69.177 46.252 67.8473C46.3668 67.697 46.5817 67.6681 46.732 67.7826C46.8824 67.8973 46.9114 68.1122 46.7967 68.2626C45.7267 69.6658 44.4067 70.8208 42.8734 71.6955C42.7899 71.7432 42.6948 71.7518 42.6092 71.7272Z" fill="url(#paint6_linear_111_601)"/>
</g>
<mask id="mask7_111_601" style="mask-type:luminance" maskUnits="userSpaceOnUse" x="45" y="59" width="8" height="15">
<path d="M45.6413 73.5356C45.5704 73.5153 45.5055 73.472 45.4588 73.4077C45.3477 73.2547 45.3817 73.0405 45.5347 72.9294C49.2105 70.2602 51.5275 66.136 51.8916 61.6144L51.901 61.4981C51.8979 61.2065 51.794 60.9277 51.6026 60.7028C51.386 60.4482 51.0834 60.2934 50.7505 60.2666C50.1204 60.2157 49.5602 60.6433 49.428 61.2443L49.4143 61.4142C49.2692 63.2119 48.7683 64.9237 47.9256 66.502C47.8366 66.6688 47.6291 66.7318 47.4623 66.6428C47.2954 66.5538 47.2324 66.3463 47.3215 66.1795C48.0673 64.7827 48.5304 63.2751 48.7002 61.6937L48.6931 61.693L48.7202 61.358C48.806 60.2939 49.7415 59.498 50.8054 59.5839C51.3207 59.6253 51.7891 59.865 52.1242 60.2589C52.4593 60.6528 52.6211 61.1536 52.5796 61.6691L52.5552 61.9728L52.547 61.9731C52.0895 66.575 49.6925 70.7566 45.9371 73.4836C45.8484 73.548 45.7391 73.5637 45.6413 73.5356Z" fill="white"/>
</mask>
<g mask="url(#mask7_111_601)">
<path d="M45.6413 73.5356C45.5704 73.5153 45.5055 73.472 45.4588 73.4077C45.3477 73.2547 45.3817 73.0405 45.5347 72.9294C49.2105 70.2602 51.5275 66.136 51.8916 61.6144L51.901 61.4981C51.8979 61.2065 51.794 60.9277 51.6026 60.7028C51.386 60.4482 51.0834 60.2934 50.7505 60.2666C50.1204 60.2157 49.5602 60.6433 49.428 61.2443L49.4143 61.4142C49.2692 63.2119 48.7683 64.9237 47.9256 66.502C47.8366 66.6688 47.6291 66.7318 47.4623 66.6428C47.2954 66.5538 47.2324 66.3463 47.3215 66.1795C48.0673 64.7827 48.5304 63.2751 48.7002 61.6937L48.6931 61.693L48.7202 61.358C48.806 60.2939 49.7415 59.498 50.8054 59.5839C51.3207 59.6253 51.7891 59.865 52.1242 60.2589C52.4593 60.6528 52.6211 61.1536 52.5796 61.6691L52.5552 61.9728L52.547 61.9731C52.0895 66.575 49.6925 70.7566 45.9371 73.4836C45.8484 73.548 45.7391 73.5637 45.6413 73.5356Z" fill="url(#paint7_linear_111_601)"/>
</g>
<mask id="mask8_111_601" style="mask-type:luminance" maskUnits="userSpaceOnUse" x="41" y="61" width="7" height="10">
<path d="M41.3785 70.5964C41.2906 70.5712 41.213 70.511 41.168 70.4231C41.0819 70.2548 41.1486 70.0485 41.317 69.9624C44.4217 68.3747 46.5746 65.3741 47.0759 61.9356C47.1033 61.7485 47.2771 61.6188 47.4643 61.6461C47.6515 61.6734 47.7809 61.8473 47.7537 62.0344C47.2203 65.692 44.9307 68.8837 41.6288 70.5721C41.5483 70.6133 41.4591 70.6195 41.3785 70.5964Z" fill="white"/>
</mask>
<g mask="url(#mask8_111_601)">
<path d="M41.3785 70.5964C41.2906 70.5712 41.213 70.511 41.168 70.4231C41.0819 70.2548 41.1486 70.0485 41.317 69.9624C44.4217 68.3747 46.5746 65.3741 47.0759 61.9356C47.1033 61.7485 47.2771 61.6188 47.4643 61.6461C47.6515 61.6734 47.7809 61.8473 47.7537 62.0344C47.2203 65.692 44.9307 68.8837 41.6288 70.5721C41.5483 70.6133 41.4591 70.6195 41.3785 70.5964Z" fill="url(#paint8_linear_111_601)"/>
</g>
<mask id="mask9_111_601" style="mask-type:luminance" maskUnits="userSpaceOnUse" x="47" y="57" width="8" height="9">
<path d="M53.1122 65.4776C52.9309 65.4256 52.8257 65.2365 52.8773 65.0549C53.1823 63.9812 53.383 62.8663 53.474 61.7412L53.4848 61.6065C53.5091 60.8994 53.2723 60.2184 52.8109 59.6759C52.3202 59.0992 51.6343 58.7481 50.8796 58.6873C49.7468 58.596 48.6725 59.1866 48.1425 60.1917C48.0543 60.359 47.8471 60.4233 47.6799 60.3349C47.5126 60.2467 47.4485 60.0396 47.5367 59.8723C48.1946 58.6244 49.5284 57.8914 50.9346 58.0046C51.8717 58.0801 52.7233 58.516 53.3325 59.2322C53.9417 59.9483 54.2355 60.8588 54.1598 61.796L54.1372 62.075L54.1318 62.0756C54.0281 63.1505 53.828 64.2143 53.5361 65.242C53.4844 65.4239 53.2951 65.5295 53.1131 65.4779C53.1128 65.4778 53.1125 65.4777 53.1122 65.4776Z" fill="white"/>
</mask>
<g mask="url(#mask9_111_601)">
<path d="M53.1122 65.4776C52.9309 65.4256 52.8257 65.2365 52.8773 65.0549C53.1823 63.9812 53.383 62.8663 53.474 61.7412L53.4848 61.6065C53.5091 60.8994 53.2723 60.2184 52.8109 59.6759C52.3202 59.0992 51.6343 58.7481 50.8796 58.6873C49.7468 58.596 48.6725 59.1866 48.1425 60.1917C48.0543 60.359 47.8471 60.4233 47.6799 60.3349C47.5126 60.2467 47.4485 60.0396 47.5367 59.8723C48.1946 58.6244 49.5284 57.8914 50.9346 58.0046C51.8717 58.0801 52.7233 58.516 53.3325 59.2322C53.9417 59.9483 54.2355 60.8588 54.1598 61.796L54.1372 62.075L54.1318 62.0756C54.0281 63.1505 53.828 64.2143 53.5361 65.242C53.4844 65.4239 53.2951 65.5295 53.1131 65.4779C53.1128 65.4778 53.1125 65.4777 53.1122 65.4776Z" fill="url(#paint9_linear_111_601)"/>
</g>
<mask id="mask10_111_601" style="mask-type:luminance" maskUnits="userSpaceOnUse" x="47" y="66" width="6" height="9">
<path d="M47.4501 74.1403C47.3861 74.1219 47.3268 74.0847 47.2811 74.0295C47.1604 73.8838 47.1808 73.668 47.3265 73.5474C49.4731 71.7707 51.1681 69.4794 52.2283 66.9214C52.3007 66.7467 52.5013 66.6638 52.6758 66.7362C52.8504 66.8086 52.9334 67.0089 52.861 67.1836C51.7582 69.8444 49.9955 72.2274 47.7632 74.0749C47.6727 74.1499 47.5551 74.1704 47.4501 74.1403Z" fill="white"/>
</mask>
<g mask="url(#mask10_111_601)">
<path d="M47.4501 74.1403C47.3861 74.1219 47.3268 74.0847 47.2811 74.0295C47.1604 73.8838 47.1808 73.668 47.3265 73.5474C49.4731 71.7707 51.1681 69.4794 52.2283 66.9214C52.3007 66.7467 52.5013 66.6638 52.6758 66.7362C52.8504 66.8086 52.9334 67.0089 52.861 67.1836C51.7582 69.8444 49.9955 72.2274 47.7632 74.0749C47.6727 74.1499 47.5551 74.1704 47.4501 74.1403Z" fill="url(#paint10_linear_111_601)"/>
</g>
<mask id="mask11_111_601" style="mask-type:luminance" maskUnits="userSpaceOnUse" x="40" y="56" width="13" height="14">
<path d="M40.3288 69.3406C40.2366 69.3141 40.156 69.2493 40.1125 69.1555C40.0329 68.9839 40.1075 68.7804 40.279 68.7007C41.7294 68.0279 42.9858 66.9833 43.9123 65.6799C44.8022 64.428 45.3619 62.9675 45.5409 61.4373L45.5381 61.437L45.5648 61.1057C45.6742 59.7466 46.3063 58.5117 47.3447 57.6283C48.3829 56.745 49.7032 56.3189 51.0621 56.4284C51.5348 56.4665 51.998 56.5691 52.439 56.7335C52.6162 56.7997 52.7062 56.9969 52.6401 57.1741C52.574 57.3513 52.3772 57.4414 52.1996 57.3753C51.818 57.2328 51.4168 57.1441 51.0071 57.1111C49.8305 57.0162 48.6874 57.3852 47.7884 58.15C46.9615 58.8535 46.4321 59.8146 46.2789 60.8799L46.2562 61.1616C46.1133 62.9347 45.4958 64.6343 44.4705 66.0767C43.4751 67.4769 42.1254 68.5992 40.5672 69.322C40.4895 69.3581 40.4052 69.3625 40.3288 69.3406Z" fill="white"/>
</mask>
<g mask="url(#mask11_111_601)">
<path d="M40.3288 69.3406C40.2366 69.3141 40.156 69.2493 40.1125 69.1555C40.0329 68.9839 40.1075 68.7804 40.279 68.7007C41.7294 68.0279 42.9858 66.9833 43.9123 65.6799C44.8022 64.428 45.3619 62.9675 45.5409 61.4373L45.5381 61.437L45.5648 61.1057C45.6742 59.7466 46.3063 58.5117 47.3447 57.6283C48.3829 56.745 49.7032 56.3189 51.0621 56.4284C51.5348 56.4665 51.998 56.5691 52.439 56.7335C52.6162 56.7997 52.7062 56.9969 52.6401 57.1741C52.574 57.3513 52.3772 57.4414 52.1996 57.3753C51.818 57.2328 51.4168 57.1441 51.0071 57.1111C49.8305 57.0162 48.6874 57.3852 47.7884 58.15C46.9615 58.8535 46.4321 59.8146 46.2789 60.8799L46.2562 61.1616C46.1133 62.9347 45.4958 64.6343 44.4705 66.0767C43.4751 67.4769 42.1254 68.5992 40.5672 69.322C40.4895 69.3581 40.4052 69.3625 40.3288 69.3406Z" fill="url(#paint11_linear_111_601)"/>
</g>
<mask id="mask12_111_601" style="mask-type:luminance" maskUnits="userSpaceOnUse" x="49" y="57" width="7" height="18">
<path d="M49.4583 74.4802C49.4017 74.464 49.3486 74.4329 49.3051 74.3873C49.1746 74.2503 49.18 74.0335 49.3169 73.9031C52.6476 70.7321 54.6853 66.4601 55.0548 61.8739L55.0669 61.7231C55.1242 60.4861 54.6613 59.2824 53.784 58.4002C53.6506 58.2661 53.6512 58.0493 53.7854 57.9159C53.9194 57.7826 54.1362 57.7831 54.2696 57.9172C55.3238 58.9773 55.8597 60.4394 55.74 61.9287L55.7162 62.2245L55.7113 62.2248C55.2662 66.8668 53.1703 71.1801 49.7892 74.3991C49.6979 74.486 49.5713 74.5126 49.4583 74.4802Z" fill="white"/>
</mask>
<g mask="url(#mask12_111_601)">
<path d="M49.4583 74.4802C49.4017 74.464 49.3486 74.4329 49.3051 74.3873C49.1746 74.2503 49.18 74.0335 49.3169 73.9031C52.6476 70.7321 54.6853 66.4601 55.0548 61.8739L55.0669 61.7231C55.1242 60.4861 54.6613 59.2824 53.784 58.4002C53.6506 58.2661 53.6512 58.0493 53.7854 57.9159C53.9194 57.7826 54.1362 57.7831 54.2696 57.9172C55.3238 58.9773 55.8597 60.4394 55.74 61.9287L55.7162 62.2245L55.7113 62.2248C55.2662 66.8668 53.1703 71.1801 49.7892 74.3991C49.6979 74.486 49.5713 74.5126 49.4583 74.4802Z" fill="url(#paint12_linear_111_601)"/>
</g>
<mask id="mask13_111_601" style="mask-type:luminance" maskUnits="userSpaceOnUse" x="39" y="64" width="5" height="5">
<path d="M39.4644 67.988C39.3692 67.9607 39.2865 67.8925 39.2442 67.7944C39.1694 67.6207 39.2495 67.4193 39.4231 67.3444C40.627 66.8256 41.683 65.9994 42.4769 64.9549C42.5914 64.8043 42.8062 64.775 42.9568 64.8895C43.1073 65.004 43.1366 65.2188 43.0222 65.3693C42.157 66.5075 41.0062 67.408 39.6942 67.9733C39.6186 68.0059 39.5378 68.0091 39.4644 67.988Z" fill="white"/>
</mask>
<g mask="url(#mask13_111_601)">
<path d="M39.4644 67.988C39.3692 67.9607 39.2865 67.8925 39.2442 67.7944C39.1694 67.6207 39.2495 67.4193 39.4231 67.3444C40.627 66.8256 41.683 65.9994 42.4769 64.9549C42.5914 64.8043 42.8062 64.775 42.9568 64.8895C43.1073 65.004 43.1366 65.2188 43.0222 65.3693C42.157 66.5075 41.0062 67.408 39.6942 67.9733C39.6186 68.0059 39.5378 68.0091 39.4644 67.988Z" fill="url(#paint13_linear_111_601)"/>
</g>
<mask id="mask14_111_601" style="mask-type:luminance" maskUnits="userSpaceOnUse" x="43" y="54" width="15" height="16">
<path d="M54.9662 69.531C54.9485 69.5259 54.9309 69.5193 54.9136 69.5111C54.7427 69.4301 54.6698 69.2259 54.7508 69.055C55.8 66.8409 56.4329 64.4687 56.6319 62.0042L56.6395 61.9104C56.7419 60.3452 56.2402 58.829 55.2214 57.6316C54.1825 56.4105 52.7301 55.6671 51.1321 55.5385C49.5336 55.4095 47.9807 55.9107 46.7595 56.9497C45.6172 57.9216 44.8929 59.2552 44.6988 60.7316L44.6738 61.04C44.6051 61.8887 44.4096 62.714 44.0927 63.4929C44.0214 63.6681 43.8216 63.7522 43.6465 63.681C43.4713 63.6097 43.3871 63.4099 43.4583 63.2347C43.7064 62.6251 43.8734 61.9841 43.9561 61.3249L43.9835 60.9846C44.1269 59.2039 44.9551 57.5857 46.3157 56.4281C47.6763 55.2705 49.4063 54.7121 51.1871 54.8558C52.9675 54.9992 54.5855 55.8274 55.7431 57.1879C56.9006 58.5484 57.459 60.2783 57.3153 62.0588L57.3022 62.2211L57.3008 62.2221C57.0808 64.7112 56.4315 67.1078 55.3697 69.3483C55.2969 69.502 55.1245 69.5764 54.9662 69.531Z" fill="white"/>
</mask>
<g mask="url(#mask14_111_601)">
<path d="M54.9662 69.531C54.9485 69.5259 54.9309 69.5193 54.9136 69.5111C54.7427 69.4301 54.6698 69.2259 54.7508 69.055C55.8 66.8409 56.4329 64.4687 56.6319 62.0042L56.6395 61.9104C56.7419 60.3452 56.2402 58.829 55.2214 57.6316C54.1825 56.4105 52.7301 55.6671 51.1321 55.5385C49.5336 55.4095 47.9807 55.9107 46.7595 56.9497C45.6172 57.9216 44.8929 59.2552 44.6988 60.7316L44.6738 61.04C44.6051 61.8887 44.4096 62.714 44.0927 63.4929C44.0214 63.6681 43.8216 63.7522 43.6465 63.681C43.4713 63.6097 43.3871 63.4099 43.4583 63.2347C43.7064 62.6251 43.8734 61.9841 43.9561 61.3249L43.9835 60.9846C44.1269 59.2039 44.9551 57.5857 46.3157 56.4281C47.6763 55.2705 49.4063 54.7121 51.1871 54.8558C52.9675 54.9992 54.5855 55.8274 55.7431 57.1879C56.9006 58.5484 57.459 60.2783 57.3153 62.0588L57.3022 62.2211L57.3008 62.2221C57.0808 64.7112 56.4315 67.1078 55.3697 69.3483C55.2969 69.502 55.1245 69.5764 54.9662 69.531Z" fill="url(#paint14_linear_111_601)"/>
</g>
<mask id="mask15_111_601" style="mask-type:luminance" maskUnits="userSpaceOnUse" x="51" y="70" width="4" height="5">
<path d="M51.6638 74.4753C51.6155 74.4614 51.5694 74.4365 51.5295 74.4006C51.3889 74.274 51.3775 74.0576 51.504 73.917C52.3713 72.9534 53.1481 71.9034 53.8131 70.7963C53.9105 70.6342 54.1206 70.5819 54.283 70.679C54.4451 70.7764 54.4976 70.9868 54.4002 71.149C53.7127 72.2935 52.9096 73.379 52.0131 74.3751C51.9225 74.4758 51.7858 74.5102 51.6638 74.4753Z" fill="white"/>
</mask>
<g mask="url(#mask15_111_601)">
<path d="M51.6638 74.4753C51.6155 74.4614 51.5694 74.4365 51.5295 74.4006C51.3889 74.274 51.3775 74.0576 51.504 73.917C52.3713 72.9534 53.1481 71.9034 53.8131 70.7963C53.9105 70.6342 54.1206 70.5819 54.283 70.679C54.4451 70.7764 54.4976 70.9868 54.4002 71.149C53.7127 72.2935 52.9096 73.379 52.0131 74.3751C51.9225 74.4758 51.7858 74.5102 51.6638 74.4753Z" fill="url(#paint15_linear_111_601)"/>
</g>
<mask id="mask16_111_601" style="mask-type:luminance" maskUnits="userSpaceOnUse" x="53" y="58" width="6" height="17">
<path d="M54.0896 74.0227C54.0505 74.0115 54.0128 73.9931 53.9783 73.9672C53.8272 73.8535 53.7968 73.6389 53.9105 73.4877C56.3755 70.2096 57.8601 66.3117 58.2069 62.2099L58.2137 62.1218C58.3023 61.0212 58.1568 59.9415 57.7811 58.9125C57.7163 58.7348 57.8077 58.5382 57.9853 58.4734C58.163 58.4085 58.3596 58.4999 58.4245 58.6776C58.8178 59.7549 58.9798 60.8829 58.9068 62.0326L58.9079 62.0339L58.8968 62.1772C58.5534 66.4406 57.0184 70.494 54.4578 73.8993C54.3701 74.016 54.2221 74.0607 54.0896 74.0227Z" fill="white"/>
</mask>
<g mask="url(#mask16_111_601)">
<path d="M54.0896 74.0227C54.0505 74.0115 54.0128 73.9931 53.9783 73.9672C53.8272 73.8535 53.7968 73.6389 53.9105 73.4877C56.3755 70.2096 57.8601 66.3117 58.2069 62.2099L58.2137 62.1218C58.3023 61.0212 58.1568 59.9415 57.7811 58.9125C57.7163 58.7348 57.8077 58.5382 57.9853 58.4734C58.163 58.4085 58.3596 58.4999 58.4245 58.6776C58.8178 59.7549 58.9798 60.8829 58.9068 62.0326L58.9079 62.0339L58.8968 62.1772C58.5534 66.4406 57.0184 70.494 54.4578 73.8993C54.3701 74.016 54.2221 74.0607 54.0896 74.0227Z" fill="url(#paint16_linear_111_601)"/>
</g>
<mask id="mask17_111_601" style="mask-type:luminance" maskUnits="userSpaceOnUse" x="49" y="53" width="9" height="5">
<path d="M57.0808 57.3362C57.0074 57.3152 56.9407 57.2696 56.8939 57.2019C55.5923 55.3207 53.5392 54.1363 51.2611 53.9524C50.6748 53.905 50.0852 53.9253 49.5088 54.0127C49.3218 54.041 49.1473 53.9124 49.1189 53.7254C49.0906 53.5385 49.2192 53.3639 49.4062 53.3355C50.0348 53.2403 50.6774 53.2181 51.3162 53.2698C53.7998 53.47 56.0381 54.7613 57.457 56.8123C57.5647 56.9678 57.5258 57.1811 57.3703 57.2887C57.2824 57.3495 57.1761 57.3635 57.0808 57.3362Z" fill="white"/>
</mask>
<g mask="url(#mask17_111_601)">
<path d="M57.0808 57.3362C57.0074 57.3152 56.9407 57.2696 56.8939 57.2019C55.5923 55.3207 53.5392 54.1363 51.2611 53.9524C50.6748 53.905 50.0852 53.9253 49.5088 54.0127C49.3218 54.041 49.1473 53.9124 49.1189 53.7254C49.0906 53.5385 49.2192 53.3639 49.4062 53.3355C50.0348 53.2403 50.6774 53.2181 51.3162 53.2698C53.7998 53.47 56.0381 54.7613 57.457 56.8123C57.5647 56.9678 57.5258 57.1811 57.3703 57.2887C57.2824 57.3495 57.1761 57.3635 57.0808 57.3362Z" fill="url(#paint17_linear_111_601)"/>
</g>
<mask id="mask18_111_601" style="mask-type:luminance" maskUnits="userSpaceOnUse" x="38" y="53" width="10" height="14">
<path d="M38.7816 66.5515C38.6853 66.5239 38.6019 66.4544 38.5601 66.3548C38.4869 66.1805 38.569 65.9797 38.7433 65.9066C40.741 65.0681 42.1161 63.2495 42.3842 61.1192L42.4062 60.8469C42.6541 57.7707 44.5735 55.1077 47.4151 53.8973C47.5892 53.8231 47.7903 53.9042 47.8644 54.0781C47.9385 54.2521 47.8576 54.4533 47.6836 54.5274C45.171 55.5976 43.4446 57.9054 43.1195 60.5975L43.0949 60.9023C42.8934 63.4051 41.3275 65.5647 39.0084 66.538C38.9336 66.5695 38.854 66.5723 38.7816 66.5515Z" fill="white"/>
</mask>
<g mask="url(#mask18_111_601)">
<path d="M38.7816 66.5515C38.6853 66.5239 38.6019 66.4544 38.5601 66.3548C38.4869 66.1805 38.569 65.9797 38.7433 65.9066C40.741 65.0681 42.1161 63.2495 42.3842 61.1192L42.4062 60.8469C42.6541 57.7707 44.5735 55.1077 47.4151 53.8973C47.5892 53.8231 47.7903 53.9042 47.8644 54.0781C47.9385 54.2521 47.8576 54.4533 47.6836 54.5274C45.171 55.5976 43.4446 57.9054 43.1195 60.5975L43.0949 60.9023C42.8934 63.4051 41.3275 65.5647 39.0084 66.538C38.9336 66.5695 38.854 66.5723 38.7816 66.5515Z" fill="url(#paint18_linear_111_601)"/>
</g>
<mask id="mask19_111_601" style="mask-type:luminance" maskUnits="userSpaceOnUse" x="38" y="58" width="4" height="8">
<path d="M38.2849 65.0447C38.1915 65.0179 38.1101 64.9517 38.067 64.8562C37.9893 64.6839 38.066 64.4811 38.2384 64.4033C39.6463 63.7685 40.6175 62.4501 40.812 60.9302L40.8286 60.7238C40.8702 60.2048 40.9539 59.6837 41.0771 59.1752C41.1217 58.9914 41.3069 58.8785 41.4906 58.9231C41.6742 58.9681 41.7873 59.1527 41.7428 59.3366C41.6518 59.7116 41.5841 60.0939 41.5406 60.4767L41.5162 60.779C41.3666 62.6337 40.2185 64.2617 38.5199 65.0277C38.4431 65.0623 38.3601 65.0662 38.2849 65.0447Z" fill="white"/>
</mask>
<g mask="url(#mask19_111_601)">
<path d="M38.2849 65.0447C38.1915 65.0179 38.1101 64.9517 38.067 64.8562C37.9893 64.6839 38.066 64.4811 38.2384 64.4033C39.6463 63.7685 40.6175 62.4501 40.812 60.9302L40.8286 60.7238C40.8702 60.2048 40.9539 59.6837 41.0771 59.1752C41.1217 58.9914 41.3069 58.8785 41.4906 58.9231C41.6742 58.9681 41.7873 59.1527 41.7428 59.3366C41.6518 59.7116 41.5841 60.0939 41.5406 60.4767L41.5162 60.779C41.3666 62.6337 40.2185 64.2617 38.5199 65.0277C38.4431 65.0623 38.3601 65.0662 38.2849 65.0447Z" fill="url(#paint19_linear_111_601)"/>
</g>
<mask id="mask20_111_601" style="mask-type:luminance" maskUnits="userSpaceOnUse" x="41" y="51" width="20" height="13">
<path d="M59.9077 63.8553C59.7474 63.8093 59.6405 63.6517 59.6631 63.4813C59.7099 63.1283 59.7491 62.7729 59.7798 62.4224L59.7922 62.2549C59.9891 59.8132 59.2234 57.4411 57.6361 55.5755C56.0489 53.7099 53.8299 52.5741 51.388 52.3772C49.5097 52.2258 47.6598 52.6456 46.0383 53.5911C44.4531 54.5156 43.1938 55.8735 42.3967 57.5179C42.3142 57.6881 42.1095 57.7593 41.9392 57.6766C41.769 57.5942 41.6979 57.3893 41.7804 57.2191C42.6371 55.4519 43.9902 53.9927 45.6933 52.9995C47.4363 51.983 49.4246 51.5318 51.4431 51.6945C54.0673 51.9061 56.4519 53.1268 58.1577 55.1316C59.8089 57.0723 60.6328 59.523 60.492 62.0579L60.495 62.0591L60.4765 62.3106C60.443 62.7265 60.3978 63.1506 60.3421 63.5712C60.3173 63.7587 60.1452 63.8906 59.9577 63.8658C59.9405 63.8635 59.9239 63.86 59.9077 63.8553Z" fill="white"/>
</mask>
<g mask="url(#mask20_111_601)">
<path d="M59.9077 63.8553C59.7474 63.8093 59.6405 63.6517 59.6631 63.4813C59.7099 63.1283 59.7491 62.7729 59.7798 62.4224L59.7922 62.2549C59.9891 59.8132 59.2234 57.4411 57.6361 55.5755C56.0489 53.7099 53.8299 52.5741 51.388 52.3772C49.5097 52.2258 47.6598 52.6456 46.0383 53.5911C44.4531 54.5156 43.1938 55.8735 42.3967 57.5179C42.3142 57.6881 42.1095 57.7593 41.9392 57.6766C41.769 57.5942 41.6979 57.3893 41.7804 57.2191C42.6371 55.4519 43.9902 53.9927 45.6933 52.9995C47.4363 51.983 49.4246 51.5318 51.4431 51.6945C54.0673 51.9061 56.4519 53.1268 58.1577 55.1316C59.8089 57.0723 60.6328 59.523 60.492 62.0579L60.495 62.0591L60.4765 62.3106C60.443 62.7265 60.3978 63.1506 60.3421 63.5712C60.3173 63.7587 60.1452 63.8906 59.9577 63.8658C59.9405 63.8635 59.9239 63.86 59.9077 63.8553Z" fill="url(#paint20_linear_111_601)"/>
</g>
<mask id="mask21_111_601" style="mask-type:luminance" maskUnits="userSpaceOnUse" x="56" y="65" width="4" height="8">
<path d="M56.7447 72.9129C56.7166 72.9048 56.6892 72.893 56.6629 72.8772C56.5007 72.78 56.448 72.5697 56.5453 72.4075C57.8433 70.2424 58.7764 67.8938 59.3188 65.4271C59.3593 65.2424 59.542 65.1256 59.7267 65.1662C59.9116 65.2063 60.0282 65.3894 59.9877 65.5741C59.4294 68.1133 58.4689 70.5309 57.1327 72.7596C57.0512 72.8956 56.8902 72.9546 56.7447 72.9129Z" fill="white"/>
</mask>
<g mask="url(#mask21_111_601)">
<path d="M56.7447 72.9129C56.7166 72.9048 56.6892 72.893 56.6629 72.8772C56.5007 72.78 56.448 72.5697 56.5453 72.4075C57.8433 70.2424 58.7764 67.8938 59.3188 65.4271C59.3593 65.2424 59.542 65.1256 59.7267 65.1662C59.9116 65.2063 60.0282 65.3894 59.9877 65.5741C59.4294 68.1133 58.4689 70.5309 57.1327 72.7596C57.0512 72.8956 56.8902 72.9546 56.7447 72.9129Z" fill="url(#paint21_linear_111_601)"/>
</g>
<mask id="mask22_111_601" style="mask-type:luminance" maskUnits="userSpaceOnUse" x="37" y="50" width="19" height="14">
<path d="M37.972 63.4235C37.8919 63.4005 37.82 63.3485 37.7735 63.2715C37.6757 63.1097 37.7275 62.8992 37.8894 62.8013C38.6358 62.3501 39.1345 61.578 39.2409 60.7187L39.2491 60.5993C39.4945 57.5535 40.9114 54.7857 43.2386 52.8057C45.5659 50.8258 48.5249 49.8706 51.5706 50.1162C52.8498 50.2192 54.0885 50.5307 55.2519 51.0417C55.4251 51.1178 55.5039 51.3198 55.4278 51.493C55.3517 51.6661 55.1494 51.7449 54.9765 51.6687C53.883 51.1885 52.7187 50.8958 51.5156 50.7989C48.6522 50.568 45.8703 51.466 43.6825 53.3274C41.5441 55.1466 40.2232 57.6736 39.9491 60.4604L39.9357 60.6547C39.8448 61.7802 39.2123 62.8018 38.2437 63.3875C38.1588 63.4388 38.0604 63.4489 37.972 63.4235Z" fill="white"/>
</mask>
<g mask="url(#mask22_111_601)">
<path d="M37.972 63.4235C37.8919 63.4005 37.82 63.3485 37.7735 63.2715C37.6757 63.1097 37.7275 62.8992 37.8894 62.8013C38.6358 62.3501 39.1345 61.578 39.2409 60.7187L39.2491 60.5993C39.4945 57.5535 40.9114 54.7857 43.2386 52.8057C45.5659 50.8258 48.5249 49.8706 51.5706 50.1162C52.8498 50.2192 54.0885 50.5307 55.2519 51.0417C55.4251 51.1178 55.5039 51.3198 55.4278 51.493C55.3517 51.6661 55.1494 51.7449 54.9765 51.6687C53.883 51.1885 52.7187 50.8958 51.5156 50.7989C48.6522 50.568 45.8703 51.466 43.6825 53.3274C41.5441 55.1466 40.2232 57.6736 39.9491 60.4604L39.9357 60.6547C39.8448 61.7802 39.2123 62.8018 38.2437 63.3875C38.1588 63.4388 38.0604 63.4489 37.972 63.4235Z" fill="url(#paint22_linear_111_601)"/>
</g>
<mask id="mask23_111_601" style="mask-type:luminance" maskUnits="userSpaceOnUse" x="56" y="51" width="7" height="20">
<path d="M59.6727 70.6626C59.6591 70.6587 59.6457 70.654 59.6324 70.6483C59.4584 70.574 59.3776 70.3728 59.4518 70.1989C60.4803 67.7882 61.1203 65.2345 61.3553 62.605L61.3713 62.3811C61.6845 58.4986 59.8658 54.7396 56.6249 52.5711C56.4677 52.4658 56.4256 52.2531 56.5307 52.096C56.636 51.9388 56.8487 51.8968 57.0058 52.0018C60.3617 54.2474 62.2838 58.0967 62.0756 62.1093L62.0802 62.1099L62.0569 62.4365C61.833 65.2186 61.1684 67.9207 60.0817 70.4677C60.0132 70.6283 59.8364 70.7095 59.6727 70.6626Z" fill="white"/>
</mask>
<g mask="url(#mask23_111_601)">
<path d="M59.6727 70.6626C59.6591 70.6587 59.6457 70.654 59.6324 70.6483C59.4584 70.574 59.3776 70.3728 59.4518 70.1989C60.4803 67.7882 61.1203 65.2345 61.3553 62.605L61.3713 62.3811C61.6845 58.4986 59.8658 54.7396 56.6249 52.5711C56.4677 52.4658 56.4256 52.2531 56.5307 52.096C56.636 51.9388 56.8487 51.8968 57.0058 52.0018C60.3617 54.2474 62.2838 58.0967 62.0756 62.1093L62.0802 62.1099L62.0569 62.4365C61.833 65.2186 61.1684 67.9207 60.0817 70.4677C60.0132 70.6283 59.8364 70.7095 59.6727 70.6626Z" fill="url(#paint23_linear_111_601)"/>
</g>
<defs>
<linearGradient id="paint0_linear_111_601" x1="42.7299" y1="45.6609" x2="35.1396" y2="72.1168" gradientUnits="userSpaceOnUse">
<stop stop-color="#688ED9"/>
<stop offset="1" stop-color="#3834EB"/>
</linearGradient>
<linearGradient id="paint1_linear_111_601" x1="52.0106" y1="48.3222" x2="44.4202" y2="74.7781" gradientUnits="userSpaceOnUse">
<stop stop-color="#686DD9"/>
<stop offset="1" stop-color="#3446EB"/>
</linearGradient>
<linearGradient id="paint2_linear_111_601" x1="63.7277" y1="51.6881" x2="56.1373" y2="78.1441" gradientUnits="userSpaceOnUse">
<stop stop-color="#686DD9"/>
<stop offset="1" stop-color="#343BEB"/>
</linearGradient>
<linearGradient id="paint3_linear_111_601" x1="66.3288" y1="52.4324" x2="58.7384" y2="78.8883" gradientUnits="userSpaceOnUse">
<stop stop-color="#6A68D9"/>
<stop offset="1" stop-color="#4E34EB"/>
</linearGradient>
<linearGradient id="paint4_linear_111_601" x1="42.3691" y1="45.5547" x2="34.7787" y2="72.0107" gradientUnits="userSpaceOnUse">
<stop stop-color="#687AD9"/>
<stop offset="1" stop-color="#4334EB"/>
</linearGradient>
<linearGradient id="paint5_linear_111_601" x1="52.8157" y1="48.5552" x2="45.2254" y2="75.0112" gradientUnits="userSpaceOnUse">
<stop stop-color="#6A68D9"/>
<stop offset="1" stop-color="#3834EB"/>
</linearGradient>
<linearGradient id="paint6_linear_111_601" x1="50.8503" y1="47.9905" x2="43.2599" y2="74.4464" gradientUnits="userSpaceOnUse">
<stop stop-color="#7168D9"/>
<stop offset="1" stop-color="#4334EB"/>
</linearGradient>
<linearGradient id="paint7_linear_111_601" x1="54.3834" y1="49.003" x2="46.7931" y2="75.4589" gradientUnits="userSpaceOnUse">
<stop stop-color="#7F68D9"/>
<stop offset="1" stop-color="#3451EB"/>
</linearGradient>
<linearGradient id="paint8_linear_111_601" x1="49.7854" y1="47.6888" x2="42.1951" y2="74.1447" gradientUnits="userSpaceOnUse">
<stop stop-color="#38B5B5" stop-opacity="0.52"/>
<stop offset="1" stop-color="#1DADAD"/>
</linearGradient>
<linearGradient id="paint9_linear_111_601" x1="54.4187" y1="49.0121" x2="46.8284" y2="75.4681" gradientUnits="userSpaceOnUse">
<stop stop-color="#158C8C"/>
<stop offset="1" stop-color="#4BDCDC"/>
</linearGradient>
<linearGradient id="paint10_linear_111_601" x1="56.0548" y1="49.4839" x2="48.4645" y2="75.9398" gradientUnits="userSpaceOnUse">
<stop stop-color="#34AEAE"/>
<stop offset="1" stop-color="#207D7B"/>
</linearGradient>
<linearGradient id="paint11_linear_111_601" x1="50.6993" y1="47.9474" x2="43.109" y2="74.4033" gradientUnits="userSpaceOnUse">
<stop stop-color="#687AD9"/>
<stop offset="1" stop-color="#4E34EB"/>
</linearGradient>
<linearGradient id="paint12_linear_111_601" x1="57.7896" y1="49.9845" x2="50.1992" y2="76.4404" gradientUnits="userSpaceOnUse">
<stop stop-color="#6A68D9"/>
<stop offset="1" stop-color="#3834EB"/>
</linearGradient>
<linearGradient id="paint13_linear_111_601" x1="46.7747" y1="46.8201" x2="39.1844" y2="73.276" gradientUnits="userSpaceOnUse">
<stop stop-color="#7868D9"/>
<stop offset="1" stop-color="#343BEB"/>
</linearGradient>
<linearGradient id="paint14_linear_111_601" x1="54.3858" y1="49.0116" x2="46.7954" y2="75.4675" gradientUnits="userSpaceOnUse">
<stop stop-color="#6873D9"/>
<stop offset="1" stop-color="#4334EB"/>
</linearGradient>
<linearGradient id="paint15_linear_111_601" x1="59.2876" y1="50.4091" x2="51.6973" y2="76.865" gradientUnits="userSpaceOnUse">
<stop stop-color="#687AD9"/>
<stop offset="1" stop-color="#3834EB"/>
</linearGradient>
<linearGradient id="paint16_linear_111_601" x1="61.2817" y1="50.98" x2="53.6914" y2="77.4359" gradientUnits="userSpaceOnUse">
<stop stop-color="#7168D9"/>
<stop offset="1" stop-color="#343BEB"/>
</linearGradient>
<linearGradient id="paint17_linear_111_601" x1="55.0775" y1="49.2024" x2="47.4872" y2="75.6584" gradientUnits="userSpaceOnUse">
<stop stop-color="#686DD9"/>
<stop offset="1" stop-color="#3446EB"/>
</linearGradient>
<linearGradient id="paint18_linear_111_601" x1="47.0357" y1="46.8919" x2="39.4454" y2="73.3478" gradientUnits="userSpaceOnUse">
<stop stop-color="#6881D9"/>
<stop offset="1" stop-color="#4E34EB"/>
</linearGradient>
<linearGradient id="paint19_linear_111_601" x1="44.5726" y1="46.1891" x2="36.9822" y2="72.645" gradientUnits="userSpaceOnUse">
<stop stop-color="#686DD9"/>
<stop offset="1" stop-color="#5934EB"/>
</linearGradient>
<linearGradient id="paint20_linear_111_601" x1="54.3322" y1="48.9921" x2="46.7419" y2="75.448" gradientUnits="userSpaceOnUse">
<stop stop-color="#68D9CB"/>
<stop offset="0.49" stop-color="#156E6E"/>
</linearGradient>
<linearGradient id="paint21_linear_111_601" x1="63.2868" y1="51.5581" x2="55.6965" y2="78.014" gradientUnits="userSpaceOnUse">
<stop stop-color="#6873D9"/>
<stop offset="1" stop-color="#4E34EB"/>
</linearGradient>
<linearGradient id="paint22_linear_111_601" x1="49.3615" y1="47.5663" x2="41.7711" y2="74.0222" gradientUnits="userSpaceOnUse">
<stop stop-color="#686DD9"/>
<stop offset="1" stop-color="#4334EB"/>
</linearGradient>
<linearGradient id="paint23_linear_111_601" x1="61.3484" y1="51.0038" x2="53.758" y2="77.4598" gradientUnits="userSpaceOnUse">
<stop stop-color="#6A68D9"/>
<stop offset="1" stop-color="#343BEB"/>
</linearGradient>
</defs>
</svg>
