<svg width="56" height="56" viewBox="0 0 56 56" fill="none" xmlns="http://www.w3.org/2000/svg">
<g clip-path="url(#clip0_114_2438)">
<path d="M51.2378 28.7025C50.7278 41.6607 39.8089 51.7524 26.8491 51.242C13.8946 50.7312 3.80277 39.8115 4.31428 26.8541C4.8226 13.8949 15.7414 3.8026 28.6972 4.31304C41.6559 4.82287 51.7476 15.744 51.2375 28.7028L51.2376 28.7025L51.2378 28.7025Z" fill="#F7931A"/>
<path d="M37.2344 22.3919C37.0558 19.2364 34.3839 18.0758 30.9698 17.6408L31.1414 13.2805L28.4872 13.1763L28.3203 17.4218C27.6225 17.3943 26.9088 17.38 26.1995 17.3663L26.3682 13.0926L23.7156 12.9882L23.5431 17.3473C22.9681 17.3364 22.4032 17.325 21.853 17.3036L21.8533 17.2899L18.1927 17.1445L18.0818 19.9792C18.0818 19.9792 20.0432 20.0192 20.0092 20.0538C21.0841 20.0964 21.4096 20.7344 21.4903 21.2769L21.2949 26.2444C21.369 26.2476 21.4656 26.2545 21.5748 26.274C21.4862 26.2706 21.3919 26.2664 21.2943 26.2635L21.0196 33.2223C20.9593 33.5588 20.7392 34.0906 19.9879 34.0622C20.0208 34.0936 18.0587 33.9858 18.0587 33.9858L17.4064 37.1349L20.8605 37.2707C21.5032 37.2969 22.1352 37.3328 22.7561 37.3609L22.5837 41.771L25.2349 41.8758L25.4065 37.5123C26.134 37.556 26.8381 37.5895 27.5261 37.616L27.3539 41.9593L30.0082 42.0634L30.1822 37.6611C34.6545 37.5809 37.8218 36.5798 38.3745 32.4046C38.8204 29.0428 37.2926 27.4749 34.7837 26.7669C36.3535 26.0438 37.37 24.7011 37.2354 22.3921L37.2345 22.3917L37.2344 22.3919ZM33.1498 31.6754C33.0214 34.9711 27.3932 34.3741 25.5943 34.305L25.8251 28.4619C27.6243 28.5333 33.2853 28.2379 33.1499 31.6754L33.1498 31.6754ZM32.2398 23.383C32.121 26.3812 27.4287 25.8461 25.9304 25.7872L26.1392 20.4879C27.6376 20.5468 32.3628 20.2558 32.2401 23.3829L32.2398 23.383Z" fill="white"/>
</g>
<defs>
<clipPath id="clip0_114_2438">
<rect width="46.9709" height="46.9762" fill="white" transform="translate(0 9.56055) rotate(-11.7451)"/>
</clipPath>
</defs>
</svg>
