<svg width="147" height="147" viewBox="0 0 147 147" fill="none" xmlns="http://www.w3.org/2000/svg">
<g clip-path="url(#clip0_111_572)">
<path d="M136.63 79.5553L32.1266 129.594C31.4129 129.935 30.6076 129.945 29.8874 129.622C29.1671 129.299 28.5908 128.669 28.2848 127.871L0.716758 55.7491C0.49375 55.1639 0.487254 54.5036 0.698695 53.913C0.910136 53.3224 1.32225 52.8498 1.84461 52.5989L107.753 1.88731C108.285 1.63341 108.885 1.62603 109.422 1.8668C109.959 2.10756 110.388 2.5768 110.616 3.17158L138.17 75.2554C138.474 76.0543 138.483 76.9556 138.194 77.7617C137.906 78.5678 137.343 79.2129 136.63 79.5553Z" fill="#F2F2F2"/>
<path d="M131.797 77.3709L34.4027 124.006C32.975 124.69 31.3482 124.028 30.7762 122.532L6.76962 59.7273C6.34544 58.6175 6.86102 57.3026 7.91897 56.796L106.623 9.53406C107.698 9.01908 108.924 9.51788 109.355 10.6459L133.349 73.4175C133.921 74.9138 133.225 76.6873 131.797 77.3709Z" fill="white"/>
<path d="M110.709 3.52586L0.823902 56.1417L0.237845 54.6085C-0.0673284 53.8069 -0.0759554 52.9026 0.213855 52.0939C0.503666 51.2852 1.06825 50.6382 1.78374 50.2948L106.268 0.265116C106.984 -0.0769446 107.792 -0.0871632 108.515 0.236701C109.237 0.560565 109.816 1.19206 110.123 1.99266L110.709 3.52586Z" fill="#5D65DE"/>
<path d="M4.86156 52.3706C5.28115 52.3706 5.6213 51.9899 5.6213 51.5203C5.6213 51.0506 5.28115 50.6699 4.86156 50.6699C4.44196 50.6699 4.10181 51.0506 4.10181 51.5203C4.10181 51.9899 4.44196 52.3706 4.86156 52.3706Z" fill="white"/>
<path d="M7.51182 51.1001C7.93142 51.1001 8.27157 50.7194 8.27157 50.2498C8.27157 49.7801 7.93142 49.3994 7.51182 49.3994C7.09223 49.3994 6.75208 49.7801 6.75208 50.2498C6.75208 50.7194 7.09223 51.1001 7.51182 51.1001Z" fill="white"/>
<path d="M10.1647 49.8296C10.5843 49.8296 10.9244 49.4489 10.9244 48.9792C10.9244 48.5096 10.5843 48.1289 10.1647 48.1289C9.74506 48.1289 9.40491 48.5096 9.40491 48.9792C9.40491 49.4489 9.74506 49.8296 10.1647 49.8296Z" fill="white"/>
<path d="M53.9014 72.2162L40.9128 78.4355C40.1991 78.7761 39.3938 78.786 38.6736 78.463C37.9533 78.1399 37.377 77.5104 37.071 76.7123L29.9011 57.9549C29.5967 57.156 29.5879 56.2547 29.8765 55.4486C30.1651 54.6425 30.7277 53.9975 31.4407 53.655L44.4293 47.4357C45.143 47.095 45.9483 47.0851 46.6685 47.4082C47.3887 47.7312 47.9651 48.3608 48.2711 49.1588L55.441 67.9163C55.7454 68.7151 55.7542 69.6164 55.4656 70.4225C55.1769 71.2286 54.6144 71.8737 53.9014 72.2162Z" fill="#F2F2F2"/>
<path d="M75.8791 61.6918L62.8905 67.911C62.1768 68.2517 61.3715 68.2616 60.6512 67.9386C59.931 67.6155 59.3547 66.9859 59.0487 66.1879L51.8788 47.4304C51.5744 46.6316 51.5656 45.7303 51.8542 44.9242C52.1428 44.1181 52.7053 43.473 53.4183 43.1306L66.4069 36.9113C67.1206 36.5706 67.9259 36.5607 68.6462 36.8838C69.3664 37.2068 69.9427 37.8364 70.2488 38.6344L77.4186 57.3919C77.723 58.1907 77.7318 59.092 77.4432 59.8981C77.1546 60.7042 76.5921 61.3493 75.8791 61.6918Z" fill="#F2F2F2"/>
<path d="M97.8555 51.1693L84.8669 57.3886C84.1532 57.7293 83.3479 57.7392 82.6277 57.4161C81.9074 57.0931 81.3311 56.4635 81.0251 55.6655L73.8552 36.908C73.5508 36.1092 73.542 35.2079 73.8306 34.4018C74.1192 33.5957 74.6818 32.9506 75.3948 32.6081L88.3834 26.3888C89.0971 26.0482 89.9024 26.0383 90.6227 26.3613C91.3429 26.6843 91.9192 27.3139 92.2252 28.112L99.3951 46.8694C99.6995 47.6682 99.7083 48.5696 99.4197 49.3757C99.1311 50.1818 98.5686 50.8268 97.8555 51.1693Z" fill="#F2F2F2"/>
<path d="M64.993 101.238L52.0044 107.457C51.2907 107.798 50.4853 107.807 49.7651 107.484C49.0449 107.161 48.4686 106.532 48.1625 105.734L40.9927 86.9763C40.6883 86.1775 40.6794 85.2762 40.9681 84.4701C41.2567 83.664 41.8192 83.0189 42.5322 82.6764L55.5208 76.4572C56.2345 76.1165 57.0398 76.1066 57.7601 76.4297C58.4803 76.7527 59.0566 77.3823 59.3626 78.1803L66.5325 96.9378C66.8369 97.7366 66.8457 98.6379 66.5571 99.444C66.2685 100.25 65.706 100.895 64.993 101.238Z" fill="#F2F2F2"/>
<path d="M86.9708 90.7123L73.9822 96.9316C73.2684 97.2722 72.4631 97.2821 71.7429 96.9591C71.0227 96.6361 70.4463 96.0065 70.1403 95.2084L62.9704 76.451C62.6661 75.6522 62.6572 74.7508 62.9459 73.9447C63.2345 73.1386 63.797 72.4936 64.51 72.1511L77.4986 65.9318C78.2123 65.5911 79.0176 65.5812 79.7378 65.9043C80.4581 66.2273 81.0344 66.8569 81.3404 67.6549L88.5103 86.4124C88.8147 87.2112 88.8235 88.1125 88.5349 88.9186C88.2463 89.7247 87.6838 90.3698 86.9708 90.7123Z" fill="#F2F2F2"/>
<path d="M108.948 80.1898L95.9598 86.4091C95.2461 86.7498 94.4408 86.7597 93.7206 86.4366C93.0003 86.1136 92.424 85.484 92.118 84.686L84.9481 65.9285C84.6437 65.1297 84.6349 64.2284 84.9235 63.4223C85.2121 62.6162 85.7747 61.9711 86.4877 61.6286L99.4763 55.4093C100.19 55.0687 100.995 55.0588 101.716 55.3818C102.436 55.7048 103.012 56.3344 103.318 57.1325L110.488 75.8899C110.792 76.6887 110.801 77.5901 110.513 78.3962C110.224 79.2023 109.661 79.8473 108.948 80.1898Z" fill="#F2F2F2"/>
<path d="M143.09 146.018H29.4249C28.649 146.017 27.9051 145.671 27.3564 145.057C26.8078 144.443 26.4992 143.611 26.4983 142.742V64.2972C26.4989 63.661 26.725 63.051 27.127 62.6011C27.5289 62.1513 28.0739 61.8982 28.6423 61.8975H143.836C144.414 61.8982 144.968 62.1556 145.377 62.6133C145.786 63.071 146.016 63.6915 146.017 64.3387V142.742C146.016 143.611 145.707 144.443 145.159 145.057C144.61 145.671 143.866 146.017 143.09 146.018Z" fill="#E6E6E6"/>
<path d="M139.416 141.881H33.4832C31.9303 141.881 30.667 140.557 30.667 138.93V70.6187C30.667 69.4117 31.6031 68.4297 32.7539 68.4297H140.111C141.281 68.4297 142.233 69.4279 142.233 70.6548V138.93C142.233 140.557 140.969 141.881 139.416 141.881Z" fill="white"/>
<path d="M145.977 64.706H26.4585V63.0384C26.4596 62.167 26.7695 61.3318 27.3201 60.7159C27.8708 60.1 28.6173 59.7536 29.3957 59.7529H143.04C143.819 59.7536 144.565 60.1 145.116 60.7159C145.666 61.3318 145.976 62.167 145.977 63.0384V64.706Z" fill="#5D65DE"/>
<path d="M31.7954 63.0845C32.215 63.0845 32.5551 62.7037 32.5551 62.2341C32.5551 61.7645 32.215 61.3838 31.7954 61.3838C31.3758 61.3838 31.0356 61.7645 31.0356 62.2341C31.0356 62.7037 31.3758 63.0845 31.7954 63.0845Z" fill="white"/>
<path d="M34.6794 63.0845C35.099 63.0845 35.4392 62.7037 35.4392 62.2341C35.4392 61.7645 35.099 61.3838 34.6794 61.3838C34.2598 61.3838 33.9197 61.7645 33.9197 62.2341C33.9197 62.7037 34.2598 63.0845 34.6794 63.0845Z" fill="white"/>
<path d="M37.5648 63.0845C37.9844 63.0845 38.3246 62.7037 38.3246 62.2341C38.3246 61.7645 37.9844 61.3838 37.5648 61.3838C37.1452 61.3838 36.8051 61.7645 36.8051 62.2341C36.8051 62.7037 37.1452 63.0845 37.5648 63.0845Z" fill="white"/>
<path d="M133.68 87.6064H83.4893C81.4799 87.6064 79.8508 89.4297 79.8508 91.6788V91.6788C79.8508 93.9279 81.4799 95.7511 83.4893 95.7511H133.68C135.69 95.7511 137.319 93.9279 137.319 91.6788C137.319 89.4297 135.69 87.6064 133.68 87.6064Z" fill="#E6E6E6"/>
<path d="M133.68 101.083H83.4893C81.4799 101.083 79.8508 102.906 79.8508 105.155V105.155C79.8508 107.404 81.4799 109.228 83.4893 109.228H133.68C135.69 109.228 137.319 107.404 137.319 105.155C137.319 102.906 135.69 101.083 133.68 101.083Z" fill="#E6E6E6"/>
<path d="M133.68 114.562H83.4893C81.4799 114.562 79.8508 116.385 79.8508 118.634V118.634C79.8508 120.883 81.4799 122.706 83.4893 122.706H133.68C135.69 122.706 137.319 120.883 137.319 118.634C137.319 116.385 135.69 114.562 133.68 114.562Z" fill="#E6E6E6"/>
<path d="M55.7319 119.267C65.5815 119.267 73.5662 111.282 73.5662 101.433C73.5662 91.5833 65.5815 83.5986 55.7319 83.5986C45.8824 83.5986 37.8977 91.5833 37.8977 101.433C37.8977 111.282 45.8824 119.267 55.7319 119.267Z" fill="#5D65DE"/>
<path d="M67.0514 95.0677L66.4658 95.2083L65.5168 91.2539C65.2942 90.3262 64.3879 89.7707 63.5071 89.982L63.0666 90.0877L62.4325 87.4452C62.2099 86.5175 61.3504 85.9507 60.5211 86.1498C60.5211 86.1498 60.4743 86.161 60.4227 86.1734L44.7459 94.4792C44.7412 94.4803 44.733 94.4872 44.7283 94.4884C43.9194 94.7518 43.4192 95.6201 43.6317 96.5056L47.3128 111.845C47.5354 112.773 48.4417 113.329 49.3225 113.117L67.9842 108.639C68.9118 108.416 69.4674 107.51 69.2447 106.582L68.2711 102.525L68.8099 102.396C69.1051 102.325 69.2499 102.082 69.1802 101.791L67.6567 95.4428C67.5859 95.1476 67.2951 95.0093 67.0514 95.0677ZM60.8375 87.055C61.0923 87.0433 61.4068 87.2801 61.5001 87.6689L62.1331 90.3068L48.6535 93.5415L60.8375 87.055ZM68.2702 106.816C68.3635 107.205 68.1504 107.618 67.7615 107.711L49.0999 112.189C48.711 112.283 48.3338 112.012 48.2405 111.623L44.5594 96.283C44.4661 95.8941 44.6792 95.4813 45.068 95.3879L63.6781 90.9221C64.067 90.8288 64.4443 91.1 64.5376 91.4888L65.4865 95.4433L60.6513 96.6036C58.5991 97.096 57.3741 99.0945 57.8666 101.147C58.359 103.199 60.4044 104.413 62.4097 103.931L67.2965 102.759L68.2702 106.816ZM68.0953 101.586L62.1871 103.004C60.7206 103.356 59.209 102.425 58.8582 100.963C58.5074 99.5014 59.4368 97.9851 60.8986 97.6343L66.8068 96.2166L68.0953 101.586Z" fill="white"/>
</g>
<defs>
<clipPath id="clip0_111_572">
<rect width="146.018" height="146.018" fill="white"/>
</clipPath>
</defs>
</svg>
