<svg width="253" height="254" viewBox="0 0 253 254" fill="none" xmlns="http://www.w3.org/2000/svg">
<g clip-path="url(#clip0_99_2)">
<path d="M126.499 101.169C127.658 101.291 128.939 101.721 129.788 102.247C135.665 105.875 141.248 109.979 147.078 113.687C161.117 122.621 175.777 130.7 189.109 140.579C196.87 146.328 193.438 155.673 191.593 163.856C186.812 185.055 175.406 203.031 163.592 220.663C156.036 231.938 147.096 242.287 138.791 253.061C138.646 253.251 138.687 253.584 138.64 253.851C139.272 253.676 140.101 253.703 140.512 253.302C150.706 243.292 160.903 233.287 170.996 223.179C179.452 214.711 188.681 206.796 195.868 197.344C201.068 190.505 204.099 181.763 206.975 173.483C210.154 164.328 212.177 154.761 214.352 145.292C214.644 144.029 213.223 141.462 211.972 140.909C203.742 137.257 195.343 133.995 187.002 130.593C186.762 130.495 186.378 130.126 186.405 130.082C186.637 129.681 186.866 129.158 187.243 128.977C200.058 122.74 212.668 115.758 227.857 118.545C228.546 118.672 229.934 116.64 230.531 115.392C237.893 99.9417 245.176 84.4557 252.435 68.9607C252.809 68.1644 252.782 67.1809 252.943 66.2836C252.236 66.8155 251.332 67.2077 250.848 67.897C238.865 84.8657 225.298 100.117 206.238 109.506C196.787 114.162 187.703 119.989 177.765 123.01C173.849 124.199 168.004 119.27 163.173 116.86C162.674 116.61 162.606 113.746 163.143 113.422C178.858 103.914 194.87 94.8758 210.329 84.9756C213.782 82.765 216.156 77.919 217.662 73.789C224.042 56.3122 230.04 38.6898 235.852 21.014C237.064 17.3297 236.892 13.1878 237.338 9.25687C237.365 9.01323 237.192 8.74879 237.112 8.49623C236.981 8.68045 236.809 8.84684 236.723 9.05185C233.398 16.7919 229.678 24.3953 226.843 32.3106C221.127 48.2839 212.692 62.6142 200.123 73.8781C189.626 83.285 177.922 91.3519 166.736 99.9863C162.614 103.168 158.505 106.377 154.218 109.319C153.487 109.821 151.074 109.387 150.807 108.784C149.862 106.633 148.332 103.674 149.113 101.992C155.968 87.2546 163.999 73.0224 170.093 57.9969C172.616 51.7751 171.495 43.9905 171.644 36.9071C171.9 24.6241 171.855 12.338 171.938 0.0520071H171.641C164.293 34.5836 154.53 68.3427 139.376 100.361C139.18 100.777 138.01 101.243 137.831 101.083C134.64 98.2243 131.654 95.1253 128.326 92.4453C127.902 92.1036 127.233 92.0234 126.499 92.0531C125.765 92.0204 125.094 92.1036 124.672 92.4453C121.344 95.1253 118.358 98.2243 115.167 101.083C114.989 101.24 113.818 100.777 113.622 100.361C98.4716 68.3249 88.7052 34.5688 81.3573 0.0341797H81.0602C81.1404 12.3202 81.0959 24.6092 81.3544 36.8893C81.5029 43.9727 80.3798 51.7573 82.9053 57.9791C88.9993 73.0045 97.0335 87.2367 103.885 101.974C104.667 103.656 103.136 106.612 102.192 108.766C101.927 109.369 99.5145 109.803 98.7806 109.301C94.4931 106.36 90.3839 103.151 86.2628 99.9684C75.0732 91.334 63.3725 83.2672 52.8752 73.8603C40.3069 62.5963 31.8745 48.2661 26.1549 32.2928C23.3204 24.3745 19.6004 16.7741 16.2756 9.03403C16.1894 8.83198 16.0171 8.66262 15.8864 8.47841C15.8061 8.73393 15.6338 8.99837 15.6605 9.23904C16.1033 13.1729 15.9339 17.3119 17.1462 20.9962C22.9579 38.672 28.9568 56.2944 35.336 73.7711C36.8424 77.9011 39.2164 82.7472 42.669 84.9578C58.1283 94.8579 74.1402 103.896 89.8551 113.404C90.3899 113.728 90.3245 116.592 89.8253 116.842C84.9912 119.252 79.1468 124.184 75.2337 122.992C65.2919 119.971 56.2089 114.144 46.7604 109.488C27.7029 100.099 14.1363 84.8508 2.15038 67.8792C1.66607 67.1899 0.762816 66.7977 0.0556641 66.2658C0.21611 67.1631 0.189369 68.1466 0.563744 68.9429C7.82245 84.4408 15.1079 99.9268 22.4676 115.374C23.0619 116.622 24.4494 118.654 25.1417 118.527C40.3306 115.74 52.9435 122.722 65.7554 128.959C66.1328 129.143 66.3616 129.663 66.5933 130.064C66.6201 130.109 66.2368 130.477 65.9961 130.575C57.6559 133.977 49.2562 137.24 41.0259 140.891C39.775 141.447 38.3548 144.014 38.646 145.274C40.8209 154.743 42.8443 164.31 46.0235 173.465C48.8997 181.748 51.9303 190.49 57.13 197.327C64.3174 206.778 73.543 214.693 82.0021 223.161C92.0954 233.27 102.293 243.277 112.487 253.284C112.897 253.685 113.726 253.661 114.359 253.833C114.311 253.566 114.353 253.233 114.207 253.043C105.903 242.266 96.9652 231.921 89.4064 220.645C77.5928 203.014 66.1863 185.038 61.4056 163.838C59.5604 155.658 56.1287 146.314 63.8895 140.561C77.2214 130.685 91.8814 122.606 105.92 113.669C111.75 109.958 117.333 105.854 123.21 102.23C124.06 101.704 125.34 101.273 126.499 101.151" fill="url(#paint0_linear_99_2)"/>
<path d="M126.499 101.169C127.658 101.291 128.939 101.721 129.788 102.247C135.665 105.875 141.248 109.979 147.078 113.687C161.117 122.621 175.777 130.7 189.109 140.579C196.87 146.328 193.438 155.673 191.593 163.856C186.812 185.055 175.406 203.031 163.592 220.663C156.036 231.938 147.096 242.287 138.791 253.061C138.646 253.251 138.687 253.584 138.64 253.851C139.272 253.676 140.101 253.703 140.512 253.302C150.706 243.292 160.903 233.287 170.996 223.179C179.452 214.711 188.681 206.796 195.868 197.344C201.068 190.505 204.099 181.763 206.975 173.483C210.154 164.328 212.177 154.761 214.352 145.292C214.644 144.029 213.223 141.462 211.972 140.909C203.742 137.257 195.343 133.995 187.002 130.593C186.762 130.495 186.378 130.126 186.405 130.082C186.637 129.681 186.866 129.158 187.243 128.977C200.058 122.74 212.668 115.758 227.857 118.545C228.546 118.672 229.934 116.64 230.531 115.392C237.893 99.9417 245.176 84.4557 252.435 68.9607C252.809 68.1644 252.782 67.1809 252.943 66.2836C252.236 66.8155 251.332 67.2077 250.848 67.897C238.865 84.8657 225.298 100.117 206.238 109.506C196.787 114.162 187.703 119.989 177.765 123.01C173.849 124.199 168.004 119.27 163.173 116.86C162.674 116.61 162.606 113.746 163.143 113.422C178.858 103.914 194.87 94.8758 210.329 84.9756C213.782 82.765 216.156 77.919 217.662 73.789C224.042 56.3122 230.041 38.6898 235.852 21.014C237.064 17.3297 236.892 13.1878 237.338 9.25687C237.365 9.01323 237.192 8.74879 237.112 8.49623C236.981 8.68045 236.809 8.84684 236.723 9.05185C233.398 16.7919 229.678 24.3953 226.843 32.3106C221.127 48.2839 212.692 62.6142 200.123 73.8781C189.626 83.285 177.922 91.3519 166.736 99.9863C162.614 103.168 158.505 106.377 154.218 109.319C153.487 109.821 151.074 109.387 150.807 108.784C149.862 106.633 148.332 103.674 149.113 101.992C155.968 87.2546 163.999 73.0224 170.093 57.9969C172.616 51.7751 171.495 43.9905 171.644 36.9071C171.9 24.6241 171.855 12.338 171.938 0.0520071H171.641C164.293 34.5836 154.53 68.3427 139.376 100.361C139.18 100.777 138.01 101.243 137.831 101.083C134.64 98.2243 131.654 95.1253 128.326 92.4453C127.902 92.1036 127.233 92.0234 126.499 92.0531C125.765 92.0204 125.094 92.1036 124.672 92.4453C121.344 95.1253 118.358 98.2243 115.167 101.083C114.989 101.24 113.818 100.777 113.622 100.361C98.4716 68.3249 88.7052 34.5688 81.3573 0.0341797H81.0602C81.1404 12.3202 81.0959 24.6092 81.3544 36.8893C81.5029 43.9727 80.3798 51.7573 82.9054 57.9791C88.9993 73.0045 97.0335 87.2367 103.885 101.974C104.667 103.656 103.136 106.612 102.192 108.766C101.927 109.369 99.5145 109.803 98.7806 109.301C94.4931 106.36 90.3839 103.151 86.2628 99.9684C75.0732 91.334 63.3725 83.2672 52.8752 73.8603C40.3069 62.5963 31.8745 48.2661 26.1549 32.2928C23.3204 24.3745 19.6004 16.7741 16.2756 9.03403C16.1894 8.83198 16.0171 8.66262 15.8864 8.47841C15.8061 8.73393 15.6338 8.99837 15.6605 9.23904C16.1033 13.1729 15.9339 17.3119 17.1462 20.9962C22.9579 38.672 28.9568 56.2944 35.336 73.7711C36.8424 77.9011 39.2164 82.7472 42.669 84.9578C58.1283 94.8579 74.1402 103.896 89.8551 113.404C90.3899 113.728 90.3245 116.592 89.8253 116.842C84.9912 119.252 79.1468 124.184 75.2336 122.992C65.2919 119.971 56.2089 114.144 46.7604 109.488C27.7029 100.099 14.1363 84.8508 2.15038 67.8792C1.66607 67.1899 0.762816 66.7977 0.0556641 66.2658C0.21611 67.1631 0.189369 68.1466 0.563744 68.9429C7.82245 84.4408 15.1079 99.9268 22.4676 115.374C23.0619 116.622 24.4494 118.654 25.1417 118.527C40.3306 115.74 52.9435 122.722 65.7554 128.959C66.1328 129.143 66.3616 129.663 66.5933 130.064C66.6201 130.109 66.2368 130.477 65.9961 130.575C57.6559 133.977 49.2562 137.24 41.0259 140.891C39.775 141.447 38.3548 144.014 38.646 145.274C40.8209 154.743 42.8443 164.31 46.0235 173.465C48.8997 181.748 51.9303 190.49 57.13 197.327C64.3174 206.778 73.543 214.693 82.0021 223.161C92.0954 233.27 102.293 243.277 112.487 253.284C112.897 253.685 113.726 253.661 114.359 253.833C114.311 253.566 114.353 253.233 114.207 253.043C105.903 242.266 96.9652 231.921 89.4064 220.645C77.5928 203.014 66.1863 185.038 61.4056 163.838C59.5604 155.658 56.1287 146.314 63.8895 140.561C77.2214 130.685 91.8814 122.606 105.92 113.669C111.75 109.958 117.333 105.854 123.21 102.23C124.06 101.704 125.34 101.273 126.499 101.151" stroke="#4946E5" stroke-width="0.791565" stroke-miterlimit="10"/>
<mask id="mask0_99_2" style="mask-type:luminance" maskUnits="userSpaceOnUse" x="78" y="146" width="8" height="35">
<path d="M80.2459 180.25C79.65 180.25 79.1168 179.831 78.9945 179.224C77.8894 173.742 77.729 168.181 78.518 162.696C79.2805 157.394 80.9104 152.279 83.3621 147.491C83.6838 146.863 84.4539 146.614 85.0821 146.936C85.7103 147.257 85.9589 148.028 85.6371 148.656C83.3143 153.192 81.7701 158.038 81.0478 163.06C80.3006 168.255 80.4528 173.524 81.5001 178.719C81.6394 179.411 81.1917 180.085 80.4999 180.224C80.4146 180.242 80.3296 180.25 80.2459 180.25Z" fill="white"/>
</mask>
<g mask="url(#mask0_99_2)">
<path d="M80.2459 180.25C79.65 180.25 79.1168 179.831 78.9945 179.224C77.8894 173.742 77.729 168.181 78.518 162.696C79.2805 157.394 80.9104 152.279 83.3621 147.491C83.6838 146.863 84.4539 146.614 85.0821 146.936C85.7103 147.257 85.9589 148.028 85.6371 148.656C83.3143 153.192 81.7701 158.038 81.0478 163.06C80.3006 168.255 80.4528 173.524 81.5001 178.719C81.6394 179.411 81.1917 180.085 80.4999 180.224C80.4146 180.242 80.3296 180.25 80.2459 180.25Z" fill="url(#paint1_linear_99_2)"/>
</g>
<mask id="mask1_99_2" style="mask-type:luminance" maskUnits="userSpaceOnUse" x="87" y="120" width="62" height="23">
<path d="M88.4142 142.989C88.1528 142.989 87.8892 142.909 87.662 142.744C87.0918 142.328 86.9669 141.528 87.3829 140.958C94.558 131.125 105.086 124.384 117.029 121.975C127.625 119.84 138.342 121.221 148.022 125.972C148.655 126.283 148.917 127.049 148.606 127.682C148.295 128.316 147.529 128.577 146.895 128.267C137.727 123.766 127.574 122.457 117.534 124.482C106.22 126.763 96.245 133.149 89.4476 142.464C89.1974 142.807 88.8085 142.989 88.4142 142.989Z" fill="white"/>
</mask>
<g mask="url(#mask1_99_2)">
<path d="M88.4142 142.989C88.1528 142.989 87.8892 142.909 87.662 142.744C87.0918 142.328 86.9669 141.528 87.3829 140.958C94.558 131.125 105.086 124.384 117.029 121.975C127.625 119.84 138.342 121.221 148.022 125.972C148.655 126.283 148.917 127.049 148.606 127.682C148.295 128.316 147.529 128.577 146.895 128.267C137.727 123.766 127.574 122.457 117.534 124.482C106.22 126.763 96.245 133.149 89.4476 142.464C89.1974 142.807 88.8085 142.989 88.4142 142.989Z" fill="url(#paint2_linear_99_2)"/>
</g>
<mask id="mask2_99_2" style="mask-type:luminance" maskUnits="userSpaceOnUse" x="152" y="129" width="23" height="33">
<path d="M173.028 161.543C172.432 161.543 171.899 161.124 171.776 160.517C169.434 148.892 162.799 138.74 153.095 131.93C152.517 131.525 152.378 130.728 152.783 130.15C153.189 129.572 153.986 129.433 154.563 129.838C164.806 137.026 171.809 147.742 174.282 160.012C174.421 160.704 173.974 161.378 173.282 161.518C173.197 161.535 173.112 161.543 173.028 161.543Z" fill="white"/>
</mask>
<g mask="url(#mask2_99_2)">
<path d="M173.028 161.543C172.432 161.543 171.899 161.124 171.776 160.517C169.434 148.892 162.799 138.74 153.095 131.93C152.517 131.525 152.378 130.728 152.783 130.15C153.189 129.572 153.986 129.433 154.563 129.838C164.806 137.026 171.809 147.742 174.282 160.012C174.421 160.704 173.974 161.378 173.282 161.518C173.197 161.535 173.112 161.543 173.028 161.543Z" fill="url(#paint3_linear_99_2)"/>
</g>
<mask id="mask3_99_2" style="mask-type:luminance" maskUnits="userSpaceOnUse" x="171" y="158" width="5" height="14">
<path d="M173.992 171.845C173.983 171.845 173.975 171.845 173.967 171.844C173.261 171.831 172.7 171.248 172.713 170.542C172.777 167.189 172.471 163.813 171.805 160.508C171.665 159.816 172.113 159.142 172.805 159.003C173.497 158.863 174.171 159.311 174.31 160.003C175.014 163.49 175.336 167.052 175.269 170.591C175.256 171.288 174.686 171.845 173.992 171.845Z" fill="white"/>
</mask>
<g mask="url(#mask3_99_2)">
<path d="M173.992 171.845C173.983 171.845 173.975 171.845 173.967 171.844C173.261 171.831 172.7 171.248 172.713 170.542C172.777 167.189 172.471 163.813 171.805 160.508C171.665 159.816 172.113 159.142 172.805 159.003C173.497 158.863 174.171 159.311 174.31 160.003C175.014 163.49 175.336 167.052 175.269 170.591C175.256 171.288 174.686 171.845 173.992 171.845Z" fill="url(#paint4_linear_99_2)"/>
</g>
<mask id="mask4_99_2" style="mask-type:luminance" maskUnits="userSpaceOnUse" x="78" y="177" width="5" height="6">
<path d="M80.7277 182.259C80.1533 182.259 79.6313 181.869 79.4877 181.286C79.3154 180.586 79.1588 179.889 79.0226 179.215C78.8828 178.523 79.3305 177.849 80.0223 177.709C80.715 177.569 81.3883 178.017 81.5281 178.709C81.6571 179.348 81.8056 180.009 81.9696 180.675C82.1384 181.36 81.7197 182.053 81.0343 182.221C80.9317 182.247 80.8288 182.259 80.7277 182.259Z" fill="white"/>
</mask>
<g mask="url(#mask4_99_2)">
<path d="M80.7277 182.259C80.1533 182.259 79.6313 181.869 79.4877 181.286C79.3154 180.586 79.1588 179.889 79.0226 179.215C78.8828 178.523 79.3305 177.849 80.0223 177.709C80.715 177.569 81.3883 178.017 81.5281 178.709C81.6571 179.348 81.8056 180.009 81.9696 180.675C82.1384 181.36 81.7197 182.053 81.0343 182.221C80.9317 182.247 80.8288 182.259 80.7277 182.259Z" fill="url(#paint5_linear_99_2)"/>
</g>
<mask id="mask5_99_2" style="mask-type:luminance" maskUnits="userSpaceOnUse" x="113" y="168" width="16" height="49">
<path d="M114.412 216.622C114.112 216.622 113.811 216.517 113.569 216.304C113.039 215.838 112.986 215.031 113.452 214.501C118.63 208.608 122.469 201.51 124.554 193.974C126.741 186.073 127.022 177.963 125.389 169.869C125.249 169.177 125.697 168.503 126.389 168.363C127.081 168.223 127.755 168.671 127.894 169.363C129.607 177.854 129.313 186.364 127.017 194.656C124.83 202.561 120.803 210.007 115.372 216.188C115.12 216.475 114.767 216.622 114.412 216.622Z" fill="white"/>
</mask>
<g mask="url(#mask5_99_2)">
<path d="M114.412 216.622C114.112 216.622 113.811 216.517 113.569 216.304C113.039 215.838 112.986 215.031 113.452 214.501C118.63 208.608 122.469 201.51 124.554 193.974C126.741 186.073 127.022 177.963 125.389 169.869C125.249 169.177 125.697 168.503 126.389 168.363C127.081 168.223 127.755 168.671 127.894 169.363C129.607 177.854 129.313 186.364 127.017 194.656C124.83 202.561 120.803 210.007 115.372 216.188C115.12 216.475 114.767 216.622 114.412 216.622Z" fill="url(#paint6_linear_99_2)"/>
</g>
<mask id="mask6_99_2" style="mask-type:luminance" maskUnits="userSpaceOnUse" x="107" y="196" width="13" height="19">
<path d="M108.298 214.527C107.977 214.527 107.655 214.407 107.406 214.164C106.901 213.671 106.891 212.862 107.384 212.357C111.743 207.888 115.104 202.673 117.373 196.86C117.63 196.202 118.371 195.878 119.028 196.134C119.686 196.39 120.011 197.131 119.754 197.789C117.36 203.924 113.814 209.426 109.213 214.142C108.963 214.398 108.631 214.527 108.298 214.527Z" fill="white"/>
</mask>
<g mask="url(#mask6_99_2)">
<path d="M108.298 214.527C107.977 214.527 107.655 214.407 107.406 214.164C106.901 213.671 106.891 212.862 107.384 212.357C111.743 207.888 115.104 202.673 117.373 196.86C117.63 196.202 118.371 195.878 119.028 196.134C119.686 196.39 120.011 197.131 119.754 197.789C117.36 203.924 113.814 209.426 109.213 214.142C108.963 214.398 108.631 214.527 108.298 214.527Z" fill="url(#paint7_linear_99_2)"/>
</g>
<mask id="mask7_99_2" style="mask-type:luminance" maskUnits="userSpaceOnUse" x="119" y="162" width="16" height="56">
<path d="M121.038 217.9C120.763 217.9 120.486 217.812 120.252 217.629C119.696 217.195 119.598 216.392 120.032 215.836C130.471 202.477 134.538 185.298 131.191 168.703L131.105 168.276C130.793 167.233 130.134 166.34 129.216 165.73C128.177 165.04 126.932 164.796 125.71 165.042C123.397 165.508 121.828 167.619 121.972 169.911L122.098 170.535C123.427 177.133 123.393 183.789 121.994 190.318C121.846 191.008 121.167 191.447 120.477 191.3C119.787 191.152 119.347 190.473 119.495 189.783C120.733 184.004 120.842 178.12 119.824 172.272L119.798 172.277L119.55 171.047C118.763 167.142 121.3 163.324 125.204 162.537C127.095 162.155 129.022 162.533 130.63 163.601C132.238 164.669 133.333 166.299 133.715 168.191L133.94 169.306L133.911 169.315C137.006 186.294 132.711 203.762 122.046 217.409C121.794 217.732 121.418 217.9 121.038 217.9Z" fill="white"/>
</mask>
<g mask="url(#mask7_99_2)">
<path d="M121.038 217.9C120.763 217.9 120.486 217.812 120.252 217.629C119.696 217.195 119.598 216.392 120.032 215.836C130.471 202.477 134.538 185.298 131.191 168.703L131.105 168.276C130.793 167.233 130.134 166.34 129.216 165.73C128.177 165.04 126.932 164.796 125.71 165.042C123.397 165.508 121.828 167.619 121.972 169.911L122.098 170.535C123.427 177.133 123.393 183.789 121.994 190.318C121.846 191.008 121.167 191.447 120.477 191.3C119.787 191.152 119.347 190.473 119.495 189.783C120.733 184.004 120.842 178.12 119.824 172.272L119.798 172.277L119.55 171.047C118.763 167.142 121.3 163.324 125.204 162.537C127.095 162.155 129.022 162.533 130.63 163.601C132.238 164.669 133.333 166.299 133.715 168.191L133.94 169.306L133.911 169.315C137.006 186.294 132.711 203.762 122.046 217.409C121.794 217.732 121.418 217.9 121.038 217.9Z" fill="url(#paint8_linear_99_2)"/>
</g>
<mask id="mask8_99_2" style="mask-type:luminance" maskUnits="userSpaceOnUse" x="101" y="173" width="17" height="39">
<path d="M102.717 211.727C102.376 211.727 102.035 211.591 101.784 211.322C101.302 210.806 101.328 209.998 101.844 209.515C111.347 200.625 115.982 187.645 114.242 174.794C114.147 174.095 114.637 173.451 115.337 173.356C116.037 173.261 116.68 173.752 116.774 174.451C118.626 188.121 113.697 201.927 103.59 211.382C103.344 211.612 103.03 211.727 102.717 211.727Z" fill="white"/>
</mask>
<g mask="url(#mask8_99_2)">
<path d="M102.717 211.727C102.376 211.727 102.035 211.591 101.784 211.322C101.302 210.806 101.328 209.998 101.844 209.515C111.347 200.625 115.982 187.645 114.242 174.794C114.147 174.095 114.637 173.451 115.337 173.356C116.037 173.261 116.68 173.752 116.774 174.451C118.626 188.121 113.697 201.927 103.59 211.382C103.344 211.612 103.03 211.727 102.717 211.727Z" fill="url(#paint9_linear_99_2)"/>
</g>
<mask id="mask9_99_2" style="mask-type:luminance" maskUnits="userSpaceOnUse" x="113" y="156" width="28" height="26">
<path d="M139.547 181.309C138.843 181.309 138.271 180.739 138.269 180.034C138.258 175.869 137.83 171.663 136.999 167.533L136.899 167.038C136.258 164.477 134.708 162.278 132.494 160.806C130.141 159.243 127.319 158.689 124.549 159.248C120.392 160.086 117.145 163.31 116.279 167.462C116.134 168.153 115.457 168.596 114.767 168.451C114.076 168.307 113.633 167.63 113.777 166.939C114.853 161.786 118.883 157.783 124.044 156.742C127.483 156.048 130.987 156.736 133.909 158.678C136.831 160.62 138.823 163.584 139.515 167.023L139.722 168.048L139.703 168.056C140.437 172.018 140.814 176.04 140.825 180.027C140.827 180.733 140.256 181.307 139.55 181.309C139.549 181.309 139.548 181.309 139.547 181.309Z" fill="white"/>
</mask>
<g mask="url(#mask9_99_2)">
<path d="M139.547 181.309C138.843 181.309 138.271 180.739 138.269 180.034C138.258 175.869 137.83 171.663 136.999 167.533L136.899 167.038C136.258 164.477 134.708 162.278 132.494 160.806C130.141 159.243 127.319 158.689 124.549 159.248C120.392 160.086 117.145 163.31 116.279 167.462C116.134 168.153 115.457 168.596 114.767 168.451C114.076 168.307 113.633 167.63 113.777 166.939C114.853 161.786 118.883 157.783 124.044 156.742C127.483 156.048 130.987 156.736 133.909 158.678C136.831 160.62 138.823 163.584 139.515 167.023L139.722 168.048L139.703 168.056C140.437 172.018 140.814 176.04 140.825 180.027C140.827 180.733 140.256 181.307 139.55 181.309C139.549 181.309 139.548 181.309 139.547 181.309Z" fill="url(#paint10_linear_99_2)"/>
</g>
<mask id="mask10_99_2" style="mask-type:luminance" maskUnits="userSpaceOnUse" x="126" y="186" width="15" height="33">
<path d="M128.148 218.201C127.9 218.201 127.648 218.129 127.428 217.978C126.845 217.579 126.696 216.784 127.095 216.202C132.966 207.619 136.688 197.655 137.859 187.387C137.939 186.686 138.573 186.182 139.274 186.263C139.975 186.342 140.478 186.976 140.398 187.677C139.181 198.357 135.31 208.719 129.204 217.645C128.956 218.007 128.556 218.201 128.148 218.201Z" fill="white"/>
</mask>
<g mask="url(#mask10_99_2)">
<path d="M128.148 218.201C127.9 218.201 127.648 218.129 127.428 217.978C126.845 217.579 126.696 216.784 127.095 216.202C132.966 207.619 136.688 197.655 137.859 187.387C137.939 186.686 138.573 186.182 139.274 186.263C139.975 186.342 140.478 186.976 140.398 187.677C139.181 198.357 135.31 208.719 129.204 217.645C128.956 218.007 128.556 218.201 128.148 218.201Z" fill="url(#paint11_linear_99_2)"/>
</g>
<mask id="mask11_99_2" style="mask-type:luminance" maskUnits="userSpaceOnUse" x="96" y="150" width="34" height="59">
<path d="M97.6604 208.308C97.3024 208.308 96.9465 208.158 96.6938 207.866C96.2317 207.333 96.2898 206.526 96.8231 206.064C101.334 202.157 104.765 197.117 106.748 191.488C108.652 186.081 109.156 180.266 108.223 174.592L108.213 174.594L107.968 173.378C106.961 168.39 107.958 163.309 110.774 159.072C113.589 154.834 117.887 151.947 122.874 150.941C124.609 150.592 126.376 150.483 128.127 150.619C128.831 150.674 129.357 151.289 129.302 151.992C129.248 152.696 128.634 153.222 127.929 153.167C126.414 153.049 124.883 153.144 123.38 153.447C119.061 154.318 115.34 156.818 112.903 160.486C110.66 163.861 109.75 167.854 110.297 171.833L110.506 172.867C111.818 179.375 111.352 186.107 109.159 192.337C107.029 198.384 103.342 203.799 98.4965 207.996C98.2547 208.205 97.9569 208.308 97.6604 208.308Z" fill="white"/>
</mask>
<g mask="url(#mask11_99_2)">
<path d="M97.6604 208.308C97.3024 208.308 96.9465 208.158 96.6938 207.866C96.2317 207.333 96.2898 206.526 96.8231 206.064C101.334 202.157 104.765 197.117 106.748 191.488C108.652 186.081 109.156 180.266 108.223 174.592L108.213 174.594L107.968 173.378C106.961 168.39 107.958 163.309 110.774 159.072C113.589 154.834 117.887 151.947 122.874 150.941C124.609 150.592 126.376 150.483 128.127 150.619C128.831 150.674 129.357 151.289 129.302 151.992C129.248 152.696 128.634 153.222 127.929 153.167C126.414 153.049 124.883 153.144 123.38 153.447C119.061 154.318 115.34 156.818 112.903 160.486C110.66 163.861 109.75 167.854 110.297 171.833L110.506 172.867C111.818 179.375 111.352 186.107 109.159 192.337C107.029 198.384 103.342 203.799 98.4965 207.996C98.2547 208.205 97.9569 208.308 97.6604 208.308Z" fill="url(#paint12_linear_99_2)"/>
</g>
<mask id="mask12_99_2" style="mask-type:luminance" maskUnits="userSpaceOnUse" x="134" y="152" width="13" height="66">
<path d="M135.699 217.345C135.48 217.345 135.257 217.288 135.054 217.169C134.445 216.812 134.241 216.029 134.598 215.42C143.282 200.617 146.195 183.195 142.801 166.363L142.689 165.809C141.621 161.313 138.722 157.471 134.667 155.209C134.05 154.866 133.83 154.087 134.173 153.471C134.517 152.855 135.295 152.633 135.912 152.977C140.785 155.695 144.212 160.388 145.315 165.854L145.534 166.94L145.517 166.946C148.698 184.056 145.619 201.686 136.803 216.713C136.565 217.119 136.138 217.345 135.699 217.345Z" fill="white"/>
</mask>
<g mask="url(#mask12_99_2)">
<path d="M135.699 217.345C135.48 217.345 135.257 217.288 135.054 217.169C134.445 216.812 134.241 216.029 134.598 215.42C143.282 200.617 146.195 183.195 142.801 166.363L142.689 165.809C141.621 161.313 138.722 157.471 134.667 155.209C134.05 154.866 133.83 154.087 134.173 153.471C134.517 152.855 135.295 152.633 135.912 152.977C140.785 155.695 144.212 160.388 145.315 165.854L145.534 166.94L145.517 166.946C148.698 184.056 145.619 201.686 136.803 216.713C136.565 217.119 136.138 217.345 135.699 217.345Z" fill="url(#paint13_linear_99_2)"/>
</g>
<mask id="mask13_99_2" style="mask-type:luminance" maskUnits="userSpaceOnUse" x="91" y="189" width="13" height="16">
<path d="M93.1717 204.356C92.8019 204.356 92.4351 204.197 92.1824 203.889C91.7352 203.342 91.8153 202.537 92.3613 202.09C96.1459 198.99 99.0836 194.939 100.857 190.375C101.112 189.717 101.853 189.391 102.511 189.647C103.169 189.902 103.495 190.643 103.239 191.301C101.307 196.274 98.1054 200.689 93.9808 204.067C93.7435 204.262 93.4567 204.356 93.1717 204.356Z" fill="white"/>
</mask>
<g mask="url(#mask13_99_2)">
<path d="M93.1717 204.356C92.8019 204.356 92.4351 204.197 92.1824 203.889C91.7352 203.342 91.8153 202.537 92.3613 202.09C96.1459 198.99 99.0836 194.939 100.857 190.375C101.112 189.717 101.853 189.391 102.511 189.647C103.169 189.902 103.495 190.643 103.239 191.301C101.307 196.274 98.1054 200.689 93.9808 204.067C93.7435 204.262 93.4567 204.356 93.1717 204.356Z" fill="url(#paint14_linear_99_2)"/>
</g>
<mask id="mask14_99_2" style="mask-type:luminance" maskUnits="userSpaceOnUse" x="101" y="144" width="52" height="50">
<path d="M150.362 193.917C150.293 193.917 150.223 193.911 150.153 193.9C149.456 193.785 148.984 193.128 149.099 192.431C150.584 183.409 150.413 174.248 148.59 165.202L148.521 164.858C147.277 159.138 143.917 154.215 139.03 150.968C134.046 147.657 128.071 146.485 122.206 147.668C116.339 148.851 111.285 152.247 107.973 157.231C104.876 161.893 103.65 167.423 104.473 172.919L104.701 174.051C105.328 177.166 105.476 180.328 105.141 183.448C105.066 184.15 104.435 184.657 103.734 184.582C103.032 184.507 102.524 183.877 102.6 183.175C102.862 180.732 102.801 178.261 102.419 175.811L102.168 174.563C100.849 168.027 102.155 161.37 105.844 155.817C109.534 150.264 115.165 146.48 121.701 145.163C128.235 143.845 134.892 145.15 140.445 148.84C145.998 152.529 149.781 158.16 151.098 164.695L151.218 165.29L151.214 165.295C152.987 174.451 153.124 183.716 151.621 192.846C151.518 193.473 150.976 193.917 150.362 193.917Z" fill="white"/>
</mask>
<g mask="url(#mask14_99_2)">
<path d="M150.362 193.917C150.293 193.917 150.223 193.911 150.153 193.9C149.456 193.785 148.984 193.128 149.099 192.431C150.584 183.409 150.413 174.248 148.59 165.202L148.521 164.858C147.277 159.138 143.917 154.215 139.03 150.968C134.046 147.657 128.071 146.485 122.206 147.668C116.339 148.851 111.285 152.247 107.973 157.231C104.876 161.893 103.65 167.423 104.473 172.919L104.701 174.051C105.328 177.166 105.476 180.328 105.141 183.448C105.066 184.15 104.435 184.657 103.734 184.582C103.032 184.507 102.524 183.877 102.6 183.175C102.862 180.732 102.801 178.261 102.419 175.811L102.168 174.563C100.849 168.027 102.155 161.37 105.844 155.817C109.534 150.264 115.165 146.48 121.701 145.163C128.235 143.845 134.892 145.15 140.445 148.84C145.998 152.529 149.781 158.16 151.098 164.695L151.218 165.29L151.214 165.295C152.987 174.451 153.124 183.716 151.621 192.846C151.518 193.473 150.976 193.917 150.362 193.917Z" fill="url(#paint15_linear_99_2)"/>
</g>
<mask id="mask15_99_2" style="mask-type:luminance" maskUnits="userSpaceOnUse" x="142" y="198" width="9" height="18">
<path d="M143.61 215.076C143.423 215.076 143.232 215.035 143.051 214.947C142.417 214.637 142.153 213.873 142.463 213.238C144.582 208.889 146.288 204.323 147.534 199.667C147.716 198.985 148.417 198.581 149.099 198.762C149.781 198.945 150.185 199.646 150.003 200.328C148.715 205.141 146.951 209.862 144.76 214.357C144.539 214.812 144.084 215.076 143.61 215.076Z" fill="white"/>
</mask>
<g mask="url(#mask15_99_2)">
<path d="M143.61 215.076C143.423 215.076 143.232 215.035 143.051 214.947C142.417 214.637 142.153 213.873 142.463 213.238C144.582 208.889 146.288 204.323 147.534 199.667C147.716 198.985 148.417 198.581 149.099 198.762C149.781 198.945 150.185 199.646 150.003 200.328C148.715 205.141 146.951 209.862 144.76 214.357C144.539 214.812 144.084 215.076 143.61 215.076Z" fill="url(#paint16_linear_99_2)"/>
</g>
<mask id="mask16_99_2" style="mask-type:luminance" maskUnits="userSpaceOnUse" x="149" y="150" width="10" height="61">
<path d="M151.847 210.956C151.695 210.956 151.541 210.929 151.391 210.871C150.731 210.619 150.402 209.88 150.654 209.221C156.123 194.925 157.436 179.414 154.459 164.343L154.393 164.02C153.578 159.98 151.945 156.257 149.538 152.952C149.123 152.382 149.248 151.582 149.819 151.167C150.389 150.751 151.189 150.877 151.604 151.448C154.124 154.907 155.866 158.787 156.787 162.986L156.792 162.99L156.9 163.516C160.056 179.163 158.722 195.283 153.041 210.134C152.846 210.643 152.361 210.956 151.847 210.956Z" fill="white"/>
</mask>
<g mask="url(#mask16_99_2)">
<path d="M151.847 210.956C151.695 210.956 151.541 210.929 151.391 210.871C150.731 210.619 150.402 209.88 150.654 209.221C156.123 194.925 157.436 179.414 154.459 164.343L154.393 164.02C153.578 159.98 151.945 156.257 149.538 152.952C149.123 152.382 149.248 151.582 149.819 151.167C150.389 150.751 151.189 150.877 151.604 151.448C154.124 154.907 155.866 158.787 156.787 162.986L156.792 162.99L156.9 163.516C160.056 179.163 158.722 195.283 153.041 210.134C152.846 210.643 152.361 210.956 151.847 210.956Z" fill="url(#paint17_linear_99_2)"/>
</g>
<mask id="mask17_99_2" style="mask-type:luminance" maskUnits="userSpaceOnUse" x="113" y="138" width="34" height="11">
<path d="M145.4 148.004C145.115 148.004 144.829 147.909 144.591 147.715C137.986 142.306 129.402 140.17 121.04 141.855C118.888 142.289 116.794 142.968 114.817 143.875C114.175 144.169 113.416 143.887 113.122 143.246C112.828 142.604 113.11 141.845 113.752 141.551C115.908 140.563 118.191 139.822 120.536 139.35C129.651 137.512 139.009 139.84 146.21 145.737C146.757 146.184 146.837 146.99 146.389 147.536C146.137 147.844 145.77 148.004 145.4 148.004Z" fill="white"/>
</mask>
<g mask="url(#mask17_99_2)">
<path d="M145.4 148.004C145.115 148.004 144.829 147.909 144.591 147.715C137.986 142.306 129.402 140.17 121.04 141.855C118.888 142.289 116.794 142.968 114.817 143.875C114.175 144.169 113.416 143.887 113.122 143.246C112.828 142.604 113.11 141.845 113.752 141.551C115.908 140.563 118.191 139.822 120.536 139.35C129.651 137.512 139.009 139.84 146.21 145.737C146.757 146.184 146.837 146.99 146.389 147.536C146.137 147.844 145.77 148.004 145.4 148.004Z" fill="url(#paint18_linear_99_2)"/>
</g>
<mask id="mask18_99_2" style="mask-type:luminance" maskUnits="userSpaceOnUse" x="87" y="145" width="23" height="55">
<path d="M89.2455 199.913C88.8717 199.913 88.501 199.75 88.2486 199.435C87.8065 198.885 87.8942 198.081 88.4444 197.639C94.7474 192.575 97.8086 184.636 96.5779 176.718L96.3765 175.719C94.0998 164.428 98.2443 152.9 107.192 145.633C107.741 145.188 108.545 145.272 108.99 145.82C109.435 146.367 109.352 147.172 108.804 147.617C100.892 154.042 97.0742 164.098 98.6786 174.09L98.9043 175.209C100.757 184.394 97.3625 193.753 90.0452 199.631C89.8092 199.821 89.5265 199.913 89.2455 199.913Z" fill="white"/>
</mask>
<g mask="url(#mask18_99_2)">
<path d="M89.2455 199.913C88.8717 199.913 88.501 199.75 88.2486 199.435C87.8065 198.885 87.8942 198.081 88.4444 197.639C94.7474 192.575 97.8086 184.636 96.5779 176.718L96.3765 175.719C94.0998 164.428 98.2443 152.9 107.192 145.633C107.741 145.188 108.545 145.272 108.99 145.82C109.435 146.367 109.352 147.172 108.804 147.617C100.892 154.042 97.0742 164.098 98.6786 174.09L98.9043 175.209C100.757 184.394 97.3625 193.753 90.0452 199.631C89.8092 199.821 89.5265 199.913 89.2455 199.913Z" fill="url(#paint19_linear_99_2)"/>
</g>
<mask id="mask19_99_2" style="mask-type:luminance" maskUnits="userSpaceOnUse" x="84" y="169" width="10" height="27">
<path d="M85.9085 195.005C85.546 195.005 85.1858 194.851 84.9329 194.553C84.4766 194.015 84.5431 193.208 85.0817 192.752C89.4788 189.026 91.6059 183.296 90.7393 177.644L90.5863 176.887C90.2015 174.982 89.9654 173.027 89.8841 171.076C89.8549 170.371 90.4028 169.775 91.108 169.746C91.8129 169.718 92.4086 170.264 92.438 170.969C92.4977 172.408 92.6481 173.849 92.8861 175.267L93.1096 176.377C94.4821 183.184 92.039 190.206 86.7342 194.702C86.494 194.905 86.2004 195.005 85.9085 195.005Z" fill="white"/>
</mask>
<g mask="url(#mask19_99_2)">
<path d="M85.9085 195.005C85.546 195.005 85.1858 194.851 84.9329 194.553C84.4766 194.015 84.5431 193.208 85.0817 192.752C89.4788 189.026 91.6059 183.296 90.7393 177.644L90.5863 176.887C90.2015 174.982 89.9654 173.027 89.8841 171.076C89.8549 170.371 90.4028 169.775 91.108 169.746C91.8129 169.718 92.4086 170.264 92.438 170.969C92.4977 172.408 92.6481 173.849 92.8861 175.267L93.1096 176.377C94.4821 183.184 92.039 190.206 86.7342 194.702C86.494 194.905 86.2004 195.005 85.9085 195.005Z" fill="url(#paint20_linear_99_2)"/>
</g>
<mask id="mask20_99_2" style="mask-type:luminance" maskUnits="userSpaceOnUse" x="90" y="132" width="74" height="37">
<path d="M162.248 168.474C161.626 168.474 161.08 168.018 160.986 167.384C160.79 166.069 160.565 164.754 160.314 163.465L160.186 162.852C158.38 153.89 153.192 146.168 145.577 141.109C137.964 136.051 128.835 134.26 119.872 136.067C112.978 137.457 106.774 140.867 101.931 145.928C97.1957 150.876 94.0759 157.043 92.9088 163.762C92.7881 164.457 92.1272 164.924 91.4311 164.802C90.7357 164.682 90.2698 164.02 90.3907 163.325C91.645 156.103 94.997 149.476 100.084 144.161C105.291 138.72 111.959 135.055 119.367 133.561C128.999 131.62 138.809 133.544 146.992 138.981C154.912 144.243 160.39 152.186 162.494 161.424L162.506 161.426L162.698 162.347C163.006 163.873 163.281 165.441 163.514 167.007C163.618 167.705 163.136 168.356 162.438 168.46C162.374 168.469 162.311 168.474 162.248 168.474Z" fill="white"/>
</mask>
<g mask="url(#mask20_99_2)">
<path d="M162.248 168.474C161.626 168.474 161.08 168.018 160.986 167.384C160.79 166.069 160.565 164.754 160.314 163.465L160.186 162.852C158.38 153.89 153.192 146.168 145.577 141.109C137.964 136.051 128.835 134.26 119.872 136.067C112.978 137.457 106.774 140.867 101.931 145.928C97.1957 150.876 94.0759 157.043 92.9088 163.762C92.7881 164.457 92.1272 164.924 91.4311 164.802C90.7357 164.682 90.2698 164.02 90.3907 163.325C91.645 156.103 94.997 149.476 100.084 144.161C105.291 138.72 111.959 135.055 119.367 133.561C128.999 131.62 138.809 133.544 146.992 138.981C154.912 144.243 160.39 152.186 162.494 161.424L162.506 161.426L162.698 162.347C163.006 163.873 163.281 165.441 163.514 167.007C163.618 167.705 163.136 168.356 162.438 168.46C162.374 168.469 162.311 168.474 162.248 168.474Z" fill="url(#paint21_linear_99_2)"/>
</g>
<mask id="mask21_99_2" style="mask-type:luminance" maskUnits="userSpaceOnUse" x="158" y="173" width="7" height="32">
<path d="M160.229 204.236C160.12 204.236 160.009 204.222 159.899 204.193C159.217 204.011 158.811 203.311 158.993 202.629C161.421 193.526 162.351 184.141 161.758 174.734C161.714 174.029 162.249 173.422 162.953 173.378C163.658 173.331 164.264 173.868 164.309 174.573C164.92 184.256 163.962 193.917 161.463 203.287C161.31 203.859 160.794 204.236 160.229 204.236Z" fill="white"/>
</mask>
<g mask="url(#mask21_99_2)">
<path d="M160.229 204.236C160.12 204.236 160.009 204.222 159.899 204.193C159.217 204.011 158.811 203.311 158.993 202.629C161.421 193.526 162.351 184.141 161.758 174.734C161.714 174.029 162.249 173.422 162.953 173.378C163.658 173.331 164.264 173.868 164.309 174.573C164.92 184.256 163.962 193.917 161.463 203.287C161.31 203.859 160.794 204.236 160.229 204.236Z" fill="url(#paint22_linear_99_2)"/>
</g>
<mask id="mask22_99_2" style="mask-type:luminance" maskUnits="userSpaceOnUse" x="81" y="126" width="53" height="64">
<path d="M83.1155 189.505C82.8045 189.505 82.493 189.392 82.2468 189.164C81.7295 188.684 81.6988 187.876 82.1787 187.358C84.3919 184.971 85.3863 181.688 84.8834 178.496L84.7901 178.059C82.5358 166.881 84.7698 155.494 91.0804 145.996C97.391 136.498 107.023 130.026 118.201 127.772C122.896 126.825 127.66 126.668 132.36 127.303C133.059 127.398 133.55 128.042 133.455 128.741C133.36 129.441 132.716 129.931 132.017 129.836C127.6 129.239 123.122 129.387 118.707 130.278C108.197 132.397 99.1421 138.481 93.2093 147.41C87.4109 156.137 85.2734 166.562 87.1583 176.84L87.31 177.551C88.1426 181.682 86.925 185.998 84.053 189.096C83.8012 189.367 83.4589 189.505 83.1155 189.505Z" fill="white"/>
</mask>
<g mask="url(#mask22_99_2)">
<path d="M83.1155 189.505C82.8045 189.505 82.493 189.392 82.2468 189.164C81.7295 188.684 81.6988 187.876 82.1787 187.358C84.3919 184.971 85.3863 181.688 84.8834 178.496L84.7901 178.059C82.5358 166.881 84.7698 155.494 91.0804 145.996C97.391 136.498 107.023 130.026 118.201 127.772C122.896 126.825 127.66 126.668 132.36 127.303C133.059 127.398 133.55 128.042 133.455 128.741C133.36 129.441 132.716 129.931 132.017 129.836C127.6 129.239 123.122 129.387 118.707 130.278C108.197 132.397 99.1421 138.481 93.2093 147.41C87.4109 156.137 85.2734 166.562 87.1583 176.84L87.31 177.551C88.1426 181.682 86.925 185.998 84.053 189.096C83.8012 189.367 83.4589 189.505 83.1155 189.505Z" fill="url(#paint23_linear_99_2)"/>
</g>
<mask id="mask23_99_2" style="mask-type:luminance" maskUnits="userSpaceOnUse" x="137" y="128" width="34" height="66">
<path d="M168.412 193.136C168.359 193.136 168.306 193.133 168.252 193.126C167.552 193.039 167.055 192.4 167.142 191.7C168.35 181.994 168.018 172.174 166.154 162.499L165.981 161.68C163.109 147.43 152.716 135.817 138.858 131.373C138.186 131.158 137.816 130.438 138.032 129.766C138.247 129.094 138.967 128.724 139.639 128.939C153.988 133.541 164.845 145.371 168.228 159.98L168.245 159.977L168.498 161.173C170.558 171.384 170.955 181.76 169.678 192.016C169.598 192.662 169.047 193.136 168.412 193.136Z" fill="white"/>
</mask>
<g mask="url(#mask23_99_2)">
<path d="M168.412 193.136C168.359 193.136 168.306 193.133 168.252 193.126C167.552 193.039 167.055 192.4 167.142 191.7C168.35 181.994 168.018 172.174 166.154 162.499L165.981 161.68C163.109 147.43 152.716 135.817 138.858 131.373C138.186 131.158 137.816 130.438 138.032 129.766C138.247 129.094 138.967 128.724 139.639 128.939C153.988 133.541 164.845 145.371 168.228 159.98L168.245 159.977L168.498 161.173C170.558 171.384 170.955 181.76 169.678 192.016C169.598 192.662 169.047 193.136 168.412 193.136Z" fill="url(#paint24_linear_99_2)"/>
</g>
</g>
<defs>
<linearGradient id="paint0_linear_99_2" x1="126.651" y1="6.78369" x2="126.499" y2="253.851" gradientUnits="userSpaceOnUse">
<stop stop-color="#52ECEC"/>
<stop offset="1" stop-color="#0D5D5D"/>
</linearGradient>
<linearGradient id="paint1_linear_99_2" x1="81.9019" y1="120.895" x2="81.9019" y2="223.611" gradientUnits="userSpaceOnUse">
<stop stop-color="#688ED9"/>
<stop offset="1" stop-color="#3834EB"/>
</linearGradient>
<linearGradient id="paint2_linear_99_2" x1="117.937" y1="120.897" x2="117.937" y2="223.614" gradientUnits="userSpaceOnUse">
<stop stop-color="#686DD9"/>
<stop offset="1" stop-color="#3446EB"/>
</linearGradient>
<linearGradient id="paint3_linear_99_2" x1="163.43" y1="120.896" x2="163.43" y2="223.612" gradientUnits="userSpaceOnUse">
<stop stop-color="#686DD9"/>
<stop offset="1" stop-color="#343BEB"/>
</linearGradient>
<linearGradient id="paint4_linear_99_2" x1="173.528" y1="120.892" x2="173.528" y2="223.608" gradientUnits="userSpaceOnUse">
<stop stop-color="#6A68D9"/>
<stop offset="1" stop-color="#4E34EB"/>
</linearGradient>
<linearGradient id="paint5_linear_99_2" x1="80.502" y1="120.889" x2="80.502" y2="223.606" gradientUnits="userSpaceOnUse">
<stop stop-color="#687AD9"/>
<stop offset="1" stop-color="#4334EB"/>
</linearGradient>
<linearGradient id="paint6_linear_99_2" x1="121.063" y1="120.895" x2="121.063" y2="223.612" gradientUnits="userSpaceOnUse">
<stop stop-color="#6A68D9"/>
<stop offset="1" stop-color="#3834EB"/>
</linearGradient>
<linearGradient id="paint7_linear_99_2" x1="113.431" y1="120.896" x2="113.431" y2="223.612" gradientUnits="userSpaceOnUse">
<stop stop-color="#7168D9"/>
<stop offset="1" stop-color="#4334EB"/>
</linearGradient>
<linearGradient id="paint8_linear_99_2" x1="127.15" y1="120.898" x2="127.15" y2="223.614" gradientUnits="userSpaceOnUse">
<stop stop-color="#7F68D9"/>
<stop offset="1" stop-color="#3451EB"/>
</linearGradient>
<linearGradient id="paint9_linear_99_2" x1="109.298" y1="120.898" x2="109.298" y2="223.615" gradientUnits="userSpaceOnUse">
<stop stop-color="#38B5B5" stop-opacity="0.52"/>
<stop offset="1" stop-color="#1DADAD"/>
</linearGradient>
<linearGradient id="paint10_linear_99_2" x1="127.287" y1="120.898" x2="127.287" y2="223.614" gradientUnits="userSpaceOnUse">
<stop stop-color="#158C8C"/>
<stop offset="1" stop-color="#4BDCDC"/>
</linearGradient>
<linearGradient id="paint11_linear_99_2" x1="133.639" y1="120.896" x2="133.639" y2="223.613" gradientUnits="userSpaceOnUse">
<stop stop-color="#34AEAE"/>
<stop offset="1" stop-color="#207D7B"/>
</linearGradient>
<linearGradient id="paint12_linear_99_2" x1="112.844" y1="120.891" x2="112.844" y2="223.608" gradientUnits="userSpaceOnUse">
<stop stop-color="#687AD9"/>
<stop offset="1" stop-color="#4E34EB"/>
</linearGradient>
<linearGradient id="paint13_linear_99_2" x1="140.375" y1="120.898" x2="140.375" y2="223.614" gradientUnits="userSpaceOnUse">
<stop stop-color="#6A68D9"/>
<stop offset="1" stop-color="#3834EB"/>
</linearGradient>
<linearGradient id="paint14_linear_99_2" x1="97.6096" y1="120.897" x2="97.6096" y2="223.614" gradientUnits="userSpaceOnUse">
<stop stop-color="#7868D9"/>
<stop offset="1" stop-color="#343BEB"/>
</linearGradient>
<linearGradient id="paint15_linear_99_2" x1="127.161" y1="120.906" x2="127.161" y2="223.622" gradientUnits="userSpaceOnUse">
<stop stop-color="#6873D9"/>
<stop offset="1" stop-color="#4334EB"/>
</linearGradient>
<linearGradient id="paint16_linear_99_2" x1="146.19" y1="120.898" x2="146.19" y2="223.614" gradientUnits="userSpaceOnUse">
<stop stop-color="#687AD9"/>
<stop offset="1" stop-color="#3834EB"/>
</linearGradient>
<linearGradient id="paint17_linear_99_2" x1="153.931" y1="120.893" x2="153.931" y2="223.61" gradientUnits="userSpaceOnUse">
<stop stop-color="#7168D9"/>
<stop offset="1" stop-color="#343BEB"/>
</linearGradient>
<linearGradient id="paint18_linear_99_2" x1="129.842" y1="120.888" x2="129.842" y2="223.605" gradientUnits="userSpaceOnUse">
<stop stop-color="#686DD9"/>
<stop offset="1" stop-color="#3446EB"/>
</linearGradient>
<linearGradient id="paint19_linear_99_2" x1="98.6214" y1="120.894" x2="98.6214" y2="223.61" gradientUnits="userSpaceOnUse">
<stop stop-color="#6881D9"/>
<stop offset="1" stop-color="#4E34EB"/>
</linearGradient>
<linearGradient id="paint20_linear_99_2" x1="89.0577" y1="120.894" x2="89.0577" y2="223.61" gradientUnits="userSpaceOnUse">
<stop stop-color="#686DD9"/>
<stop offset="1" stop-color="#5934EB"/>
</linearGradient>
<linearGradient id="paint21_linear_99_2" x1="126.95" y1="120.894" x2="126.95" y2="223.61" gradientUnits="userSpaceOnUse">
<stop stop-color="#68D9CB"/>
<stop offset="0.49" stop-color="#156E6E"/>
</linearGradient>
<linearGradient id="paint22_linear_99_2" x1="161.719" y1="120.898" x2="161.719" y2="223.614" gradientUnits="userSpaceOnUse">
<stop stop-color="#6873D9"/>
<stop offset="1" stop-color="#4E34EB"/>
</linearGradient>
<linearGradient id="paint23_linear_99_2" x1="107.652" y1="120.899" x2="107.652" y2="223.615" gradientUnits="userSpaceOnUse">
<stop stop-color="#686DD9"/>
<stop offset="1" stop-color="#4334EB"/>
</linearGradient>
<linearGradient id="paint24_linear_99_2" x1="154.19" y1="120.89" x2="154.19" y2="223.606" gradientUnits="userSpaceOnUse">
<stop stop-color="#6A68D9"/>
<stop offset="1" stop-color="#343BEB"/>
</linearGradient>
<clipPath id="clip0_99_2">
<rect width="253" height="253.9" fill="white"/>
</clipPath>
</defs>
</svg>
